<?xml version="1.0" standalone="no"?>
<!DOCTYPE svg PUBLIC "-//W3C//DTD SVG 1.1//EN" "http://www.w3.org/Graphics/SVG/1.1/DTD/svg11.dtd">
<svg version="1.1" xmlns="http://www.w3.org/2000/svg" viewBox="0 0 97 117" width="97" height="117"><!-- svg-source:excalidraw --><metadata></metadata><defs><style class="style-fonts">
      </style></defs><g stroke-linecap="round" transform="translate(10 10) rotate(0 38.5 48.5)"><path d="M2.3 -2.7 C18.41 -2.28, 33.34 -4.8, 80.19 -2.81 M0.94 -1.39 C31.1 -0.74, 61.67 0.58, 75.44 0.45 M77.34 3.29 C75.84 32.06, 78.27 59.19, 73.45 99.06 M76.72 0.45 C76.72 35.99, 76.19 72.27, 77.91 98.74 M76.6 94.19 C63.58 93.62, 43.06 99.39, 1.11 98.85 M78.32 97.64 C48.77 95.82, 15.13 96.93, 0.29 96.98 M1.68 94.62 C-0.35 70.9, 1.29 44.52, 3.24 -3.39 M1.04 96.81 C-2.62 70.04, 0.44 43.13, -1.01 -1.26" stroke="#1e1e1e" stroke-width="1" fill="none"></path></g><g stroke-linecap="round" transform="translate(18.927536231884005 19.72628726287263) rotate(0 29.43297101449275 40.35094850948511)"><path d="M-1.81 2.69 C20.99 -2.82, 42.02 3.95, 58.17 -2.75 M0.08 -1.3 C13.94 -0.12, 25.72 -0.39, 57.26 -1.54 M57.99 -2.62 C55.44 23.51, 59.35 47.28, 59.64 82.58 M60.5 -0.6 C59.62 19.84, 61.84 39.79, 60.22 82.55 M58.61 83.93 C39.93 77, 21.92 77.93, -2.28 80.79 M59.53 79.06 C41.3 78.64, 27.28 79.78, -0.91 78.99 M3.56 79.09 C4.27 51.66, -0.83 16.9, -1.39 -2.77 M1.43 81.63 C1 60.42, 1.9 37.77, -0.89 0.84" stroke="#1e1e1e" stroke-width="1" fill="none"></path></g><g stroke-linecap="round" transform="translate(30.784420289855007 33.13279132791331) rotate(0 19.459239130434753 23.592818428184273)"><path d="M18.84 -0.85 C23.07 -1.06, 28.77 2.49, 32.21 5.82 C35.65 9.14, 38.77 14.16, 39.47 19.11 C40.17 24.06, 38.42 31.17, 36.43 35.52 C34.45 39.86, 31.53 43.54, 27.56 45.18 C23.58 46.81, 16.6 46.76, 12.59 45.33 C8.58 43.89, 5.5 40.63, 3.51 36.59 C1.51 32.55, 0.31 26.15, 0.62 21.08 C0.93 16.02, 1.98 9.86, 5.38 6.19 C8.79 2.53, 18.02 -0.09, 21.05 -0.89 C24.08 -1.7, 23.49 0.89, 23.55 1.34 M22.74 0.29 C26.93 0.95, 32.15 3.9, 35.08 7.74 C38 11.59, 40.64 17.89, 40.31 23.36 C39.97 28.83, 36.26 36.82, 33.07 40.57 C29.89 44.33, 25.12 45.18, 21.19 45.9 C17.25 46.62, 12.98 47.14, 9.48 44.89 C5.98 42.63, 1.43 37.45, 0.17 32.36 C-1.1 27.28, 0.29 19.1, 1.89 14.39 C3.5 9.67, 6.2 6.19, 9.8 4.07 C13.41 1.95, 21.4 2.24, 23.51 1.65 C25.61 1.06, 22.71 0.24, 22.44 0.55" stroke="#1e1e1e" stroke-width="1" fill="none"></path></g><g stroke-linecap="round"><g transform="translate(40.40942028985501 77.68970189701895) rotate(0 -10.18297101449275 11.763550135501362)"><path d="M0.07 -0.25 C-4.32 5.27, -13.69 16.19, -18.56 22.01 M0.63 -0.92 C-6.06 7.5, -11.11 14.19, -20.19 22.69" stroke="#1e1e1e" stroke-width="1" fill="none"></path></g></g><mask></mask><g stroke-linecap="round"><g transform="translate(60.356884057971 77.42682926829269) rotate(0 8.64855072463763 11.697831978319783)"><path d="M-1.59 0.69 C6.65 8.4, 10.13 11.14, 15.63 21.5 M-0.21 -0.59 C4.9 6.47, 7.75 11.94, 16.65 22.86" stroke="#1e1e1e" stroke-width="1" fill="none"></path></g></g><mask></mask><g transform="translate(44.80489165401946 53.156701840160906) rotate(0 0.00004999999998744897 0.00004999999998744897)" stroke="none"><path fill="#1e1e1e" d="M 1.57,-1.57 Q 1.57,-1.57 1.77,-1.27 1.98,-0.98 2.09,-0.64 2.20,-0.29 2.19,0.05 2.18,0.41 2.05,0.75 1.93,1.09 1.70,1.37 1.48,1.65 1.18,1.84 0.87,2.04 0.52,2.12 0.18,2.21 -0.17,2.18 -0.53,2.15 -0.86,2.01 -1.19,1.87 -1.46,1.63 -1.73,1.39 -1.90,1.07 -2.08,0.76 -2.15,0.41 -2.21,0.05 -2.17,-0.29 -2.12,-0.65 -1.96,-0.97 -1.80,-1.29 -1.54,-1.54 -1.29,-1.80 -0.97,-1.96 -0.65,-2.12 -0.29,-2.17 0.06,-2.21 0.41,-2.15 0.76,-2.08 1.07,-1.90 1.39,-1.73 1.63,-1.46 1.87,-1.19 2.01,-0.86 2.15,-0.53 2.18,-0.17 2.21,0.18 2.12,0.52 2.03,0.87 1.84,1.18 1.65,1.48 1.37,1.70 1.09,1.93 0.75,2.05 0.41,2.18 0.05,2.19 -0.30,2.20 -0.64,2.09 -0.98,1.98 -1.27,1.77 -1.57,1.56 -1.57,1.57 -1.57,1.57 -1.73,1.35 -1.90,1.14 -2.01,0.90 -2.12,0.66 -2.16,0.39 -2.21,0.13 -2.20,-0.13 -2.18,-0.40 -2.10,-0.65 -2.02,-0.91 -1.88,-1.14 -1.74,-1.36 -1.55,-1.55 -1.36,-1.74 -1.14,-1.88 -0.91,-2.02 -0.65,-2.10 -0.40,-2.18 -0.13,-2.20 0.13,-2.21 0.39,-2.16 0.66,-2.12 0.90,-2.01 1.14,-1.90 1.35,-1.73 1.57,-1.57 1.57,-1.57 L 1.57,-1.57 Z"></path></g><g transform="translate(55.885972735100495 52.34589102935013) rotate(0 0.00004999999998744897 0.00004999999998744897)" stroke="none"><path fill="#1e1e1e" d="M 1.57,-1.57 Q 1.57,-1.57 1.77,-1.27 1.98,-0.98 2.09,-0.64 2.20,-0.29 2.19,0.05 2.18,0.41 2.05,0.75 1.93,1.09 1.70,1.37 1.48,1.65 1.18,1.84 0.87,2.04 0.52,2.12 0.18,2.21 -0.17,2.18 -0.53,2.15 -0.86,2.01 -1.19,1.87 -1.46,1.63 -1.73,1.39 -1.90,1.07 -2.08,0.76 -2.15,0.41 -2.21,0.05 -2.17,-0.29 -2.12,-0.65 -1.96,-0.97 -1.80,-1.29 -1.54,-1.54 -1.29,-1.80 -0.97,-1.96 -0.65,-2.12 -0.29,-2.17 0.06,-2.21 0.41,-2.15 0.76,-2.08 1.07,-1.90 1.39,-1.73 1.63,-1.46 1.87,-1.19 2.01,-0.86 2.15,-0.53 2.18,-0.17 2.21,0.18 2.12,0.52 2.03,0.87 1.84,1.18 1.65,1.48 1.37,1.70 1.09,1.93 0.75,2.05 0.41,2.18 0.05,2.19 -0.30,2.20 -0.64,2.09 -0.98,1.98 -1.27,1.77 -1.57,1.56 -1.57,1.57 -1.57,1.57 -1.73,1.35 -1.90,1.14 -2.01,0.90 -2.12,0.66 -2.16,0.39 -2.21,0.13 -2.20,-0.13 -2.18,-0.40 -2.10,-0.65 -2.02,-0.91 -1.88,-1.14 -1.74,-1.36 -1.55,-1.55 -1.36,-1.74 -1.14,-1.88 -0.91,-2.02 -0.65,-2.10 -0.40,-2.18 -0.13,-2.20 0.13,-2.21 0.39,-2.16 0.66,-2.12 0.90,-2.01 1.14,-1.90 1.35,-1.73 1.57,-1.57 1.57,-1.57 L 1.57,-1.57 Z"></path></g></svg>