<?xml version="1.0" standalone="no"?>
<!DOCTYPE svg PUBLIC "-//W3C//DTD SVG 1.1//EN" "http://www.w3.org/Graphics/SVG/1.1/DTD/svg11.dtd">
<svg version="1.1" xmlns="http://www.w3.org/2000/svg" viewBox="0 0 59.83642958789005 33.200000000000045" width="59.83642958789005" height="33.200000000000045"><!-- svg-source:excalidraw --><metadata></metadata><defs><style class="style-fonts">
      </style></defs><g stroke-linecap="round" transform="translate(10 10) rotate(0 13.800000000000182 6.600000000000023)"><path d="M14.16 0.54 C16.98 0.37, 21.86 0.49, 24.16 1.25 C26.45 2, 27.71 3.43, 27.91 5.06 C28.11 6.7, 27.2 9.74, 25.36 11.07 C23.52 12.39, 19.81 12.82, 16.88 13.02 C13.95 13.23, 10.31 12.74, 7.77 12.29 C5.23 11.83, 2.7 11.6, 1.64 10.29 C0.58 8.98, 0.87 5.93, 1.42 4.42 C1.96 2.9, 2.21 2.03, 4.93 1.2 C7.66 0.38, 15.43 -0.55, 17.77 -0.53 C20.1 -0.51, 19.13 1.08, 18.95 1.34 M6.44 -0.63 C8.95 -1.38, 13.67 0.46, 16.75 1.09 C19.83 1.73, 23 2.07, 24.93 3.17 C26.86 4.28, 28.54 6.52, 28.32 7.72 C28.11 8.92, 25.6 9.69, 23.64 10.38 C21.67 11.07, 19.52 11.68, 16.53 11.86 C13.54 12.05, 8.12 11.93, 5.69 11.47 C3.26 11.02, 2.54 10.41, 1.95 9.13 C1.36 7.85, 1.01 5.27, 2.15 3.79 C3.29 2.3, 7.68 0.61, 8.78 0.2 C9.88 -0.21, 9.03 1.13, 8.75 1.3" stroke="#1e1e1e" stroke-width="1" fill="none"></path></g><g stroke-linecap="round"><g transform="translate(11.600000000000364 18.40000000000009) rotate(0 12.799999999999955 -0.8000000000000682)"><path d="M0 0 C9.8 -0.61, 19.59 -1.22, 25.6 -1.6 M0 0 C6.58 -0.41, 13.15 -0.82, 25.6 -1.6" stroke="#1e1e1e" stroke-width="1" fill="none"></path></g></g><mask></mask><g stroke-linecap="round"><g transform="translate(30.799999999999272 16.790243902438988) rotate(0 -2.195121951219562 -2.439024390243844)"><path d="M0 0 C-1.2 -1.33, -2.4 -2.67, -4.39 -4.88 M0 0 C-1.49 -1.65, -2.98 -3.31, -4.39 -4.88" stroke="#1e1e1e" stroke-width="1" fill="none"></path></g></g><mask></mask><g stroke-linecap="round"><g transform="translate(25.678048780487188 17.034146341463384) rotate(0 -2.560975609756042 -2.804878048780438)"><path d="M0 0 C-1.13 -1.24, -2.26 -2.48, -5.12 -5.61 M0 0 C-2.03 -2.23, -4.07 -4.46, -5.12 -5.61" stroke="#1e1e1e" stroke-width="1" fill="none"></path></g></g><mask></mask><g stroke-linecap="round"><g transform="translate(20.556097560975104 17.76585365853657) rotate(0 -2.195121951219562 -2.804878048780438)"><path d="M0 0 C-1.17 -1.5, -2.35 -3, -4.39 -5.61 M0 0 C-0.89 -1.14, -1.78 -2.27, -4.39 -5.61" stroke="#1e1e1e" stroke-width="1" fill="none"></path></g></g><mask></mask><g stroke-linecap="round"><g transform="translate(30.068292682926312 17.27804878048778) rotate(0 -1.219512195121979 2.073170731707364)"><path d="M0 0 C-0.84 1.43, -1.68 2.86, -2.44 4.15 M0 0 C-0.55 0.94, -1.1 1.87, -2.44 4.15" stroke="#1e1e1e" stroke-width="1" fill="none"></path></g></g><mask></mask><g stroke-linecap="round"><g transform="translate(24.946341463413773 17.27804878048778) rotate(0 -1.951219512194939 2.31707317073176)"><path d="M0 0 C-1.26 1.49, -2.52 2.99, -3.9 4.63 M0 0 C-1.15 1.37, -2.31 2.74, -3.9 4.63" stroke="#1e1e1e" stroke-width="1" fill="none"></path></g></g><mask></mask><g stroke-linecap="round"><g transform="translate(19.58048780487752 17.76585365853657) rotate(0 -1.3414634146342905 1.7073170731707705)"><path d="M-0.01 -0.28 C-1.22 1.08, -1.93 2.23, -2.87 3.67 M-0.03 0.01 C-0.43 0.59, -1.2 1.21, -2.71 3.3" stroke="#1e1e1e" stroke-width="1" fill="none"></path></g></g><mask></mask><g stroke-linecap="round"><g transform="translate(36.89756097560894 17.27804878048778) rotate(0 6.585365853658459 -1.219512195121922)"><path d="M0.13 0.03 C1.43 -0.9, 2.52 -0.86, 7.57 -3.31 M-0.16 -0.05 C2.26 -0.81, 4.69 -1.69, 7.1 -2.37 M7.64 -2.05 C9.33 -2.11, 10.88 -1.35, 12.94 0.42 M7.11 -2.67 C8.84 -1.96, 11.33 -0.86, 12.93 -0.06" stroke="#1e1e1e" stroke-width="1" fill="none"></path></g></g><mask></mask></svg>