<?xml version="1.0" standalone="no"?>
<!DOCTYPE svg PUBLIC "-//W3C//DTD SVG 1.1//EN" "http://www.w3.org/Graphics/SVG/1.1/DTD/svg11.dtd">
<svg version="1.1" xmlns="http://www.w3.org/2000/svg" viewBox="0 0 83.30291947757178 53.742349740282066" width="83.30291947757178" height="53.742349740282066"><!-- svg-source:excalidraw --><metadata></metadata><defs><style class="style-fonts">
      </style></defs><g stroke-linecap="round"><g transform="translate(42.63402545889585 22.26630047697313) rotate(0 10.975609756097583 -4.756097560975661)"><path d="M-1.44 -1.25 C7.4 0.18, 10.92 0.94, 20.87 3.49 M-0.82 0.34 C7.65 0.32, 12.9 0.47, 21.7 1.64 M22.51 0.76 C20.41 -2.53, 16.26 -5.37, 9.48 -11.68 M21.46 1.73 C19.87 -1.44, 18.11 -3.02, 10.2 -12.27 M12.2 -9.83 C8.35 -8.22, 6.21 -4.59, -0.03 2.19 M10.32 -11 C8.4 -8.37, 6.66 -4.96, 1.4 2.21" stroke="#1e1e1e" stroke-width="1" fill="none"></path></g></g><mask></mask><g stroke-linecap="round"><g transform="translate(11.170610824749474 24.949227306241596) rotate(0 7.195121951219562 9.39024390243901)"><path d="M1.16 -0.17 C4.01 7.57, 10.18 16.5, 14.6 18.7 M0.83 -0.18 C4.12 5.86, 9.61 12.71, 14.01 18.45" stroke="#1e1e1e" stroke-width="1" fill="none"></path></g></g><mask></mask><g stroke-linecap="round"><g transform="translate(10.926708385725306 24.949227306241596) rotate(0 5.975609756097356 -0.1219512195121979)"><path d="M-0.93 0.03 C2.19 0.87, 5.8 -0.15, 12.53 -1.23 M-0.44 -0.38 C3.84 -0.25, 7.75 -0.34, 11.52 -0.05" stroke="#1e1e1e" stroke-width="1" fill="none"></path></g></g><mask></mask><g stroke-linecap="round"><g transform="translate(22.877927897919562 24.705324867216973) rotate(0 1.0975609756098947 8.780487804878078)"><path d="M-0.95 1.36 C0.69 5.05, 2 8.79, 2.8 19.04 M-0.22 -0.28 C0.15 4.67, 0.47 10.2, 1.59 18.22" stroke="#1e1e1e" stroke-width="1" fill="none"></path></g></g><mask></mask><g stroke-linecap="round"><g transform="translate(21.65841570279872 23.9736175501439) rotate(0 4.390243902439124 5.975609756097526)"><path d="M0.16 -0.06 C3.3 2.32, 5.75 8.39, 8.51 10.86 M-0.28 -0.25 C1.52 3.1, 3.62 6.24, 8.4 11.96" stroke="#1e1e1e" stroke-width="1" fill="none"></path></g></g><mask></mask><g stroke-linecap="round"><g transform="translate(21.65841570279872 23.729715111119503) rotate(0 5.609756097561103 -1.219512195121979)"><path d="M0.55 -0.95 C4.62 0.04, 8.25 -2.68, 10.49 -2.73 M-0.41 0.19 C2.63 -0.19, 5.74 -1.27, 11.15 -2.93" stroke="#1e1e1e" stroke-width="1" fill="none"></path></g></g><mask></mask><g stroke-linecap="round"><g transform="translate(32.87792789792047 21.290690720875546) rotate(0 6.341463414634063 3.65853658536588)"><path d="M0.5 1.22 C3.53 1.19, 6.62 4.07, 12.22 6.76 M-0.5 0.54 C2.95 1.91, 6.62 3.23, 12.59 6.61" stroke="#1e1e1e" stroke-width="1" fill="none"></path></g></g><mask></mask><g stroke-linecap="round"><g transform="translate(45.56085472718905 28.60776389160742) rotate(0 -7.682926829268354 3.1707317073170316)"><path d="M-0.3 -1.23 C-4.37 1.09, -7.19 2.25, -15.92 5.15 M-0.43 0 C-5.26 1.5, -10.36 3.53, -15.95 6.69" stroke="#1e1e1e" stroke-width="1" fill="none"></path></g></g><mask></mask><g stroke-linecap="round"><g transform="translate(60.43512915329711 26.668578637444853) rotate(93.69247165185327 4.878048780487916 6.9512195121951095)"><path d="M-1.07 -0.43 C3.18 4.75, 6.89 9.52, 10.31 12.73 M-0.11 -0.73 C3.47 4.38, 6.64 10.76, 9.27 13.69" stroke="#1e1e1e" stroke-width="1" fill="none"></path></g></g><mask></mask><g stroke-linecap="round"><g transform="translate(65.2116824576292 24.011765145966592) rotate(93.69247165185327 0.12195121951208421 6.219512195121922)"><path d="M-0.39 -0.47 C-0.44 1.92, 0.43 4.77, 1.17 11.8 M-0.08 -0.6 C-0.38 4, -0.22 7.32, 0.29 11.93" stroke="#1e1e1e" stroke-width="1" fill="none"></path></g></g><mask></mask><g stroke-linecap="round"><g transform="translate(60.02866790980124 31.887210240984473) rotate(93.69247165185327 -5 0.7317073170731874)"><path d="M-0.23 -0.49 C-0.87 1.06, -1.66 2.72, -3.9 5.52 M-0.24 0.14 C-1.04 1.07, -1.65 2.08, -3.69 5.78 M-4.22 5.42 C-4.24 4.66, -6.6 1.58, -10.12 -3.63 M-3.88 5.89 C-5.76 3.71, -6.93 1.26, -9.95 -3.78" stroke="#1e1e1e" stroke-width="1" fill="none"></path></g></g><mask></mask><g stroke-linecap="round"><g transform="translate(20.43031113418556 5.0451641081916705) rotate(304.9063498433839 4.878048780487916 6.9512195121951095)"><path d="M-0.74 1.09 C2.64 4.84, 5.44 9.51, 10.98 14.9 M-0.08 -0.44 C2.17 3.43, 5.73 7.42, 9.6 13.35" stroke="#1e1e1e" stroke-width="1" fill="none"></path></g></g><mask></mask><g stroke-linecap="round"><g transform="translate(22.91661201507941 9.492038556987154) rotate(304.9063498433839 0.12195121951208421 6.219512195121922)"><path d="M-0.69 -0.1 C-1.19 3.36, 0.99 8.12, -0.22 11.81 M-0.23 -0.12 C0.57 4.66, 0.05 8.64, -0.22 13.01" stroke="#1e1e1e" stroke-width="1" fill="none"></path></g></g><mask></mask><g stroke-linecap="round"><g transform="translate(38.1704196869382 16.733498383448477) rotate(304.9063498433839 -5 0.7317073170731874)"><path d="M-0.66 -0.18 C-0.96 2.44, -3.13 3.74, -3.47 5.54 M0.27 0.08 C-1.05 1.16, -2.22 3.09, -3.96 5.89 M-3.65 5.5 C-6.1 2.81, -7.81 -1.73, -10.5 -3.49 M-3.99 5.34 C-5.22 3.48, -6.76 1.24, -10.37 -4.35" stroke="#1e1e1e" stroke-width="1" fill="none"></path></g></g><mask></mask><g stroke-linecap="round"><g transform="translate(30.04962489134823 39.228232869346016) rotate(0 10.975609756097583 -4.756097560975661)"><path d="M-0.7 -0.51 C10.22 0.75, 17.4 3.54, 22.16 0.95 M-0.3 0.08 C5.25 1.12, 9.65 1.15, 22.8 1.63 M22.91 2.09 C19.37 -0.9, 14.71 -5.46, 10.47 -10.79 M21.17 2.08 C18.49 -3.27, 13.79 -9, 11.45 -11.18 M11.35 -10.65 C9.71 -8.23, 4.6 -3.38, -0.09 2.86 M11.28 -11.84 C7.58 -8.06, 4.38 -3.71, 1.89 1.13" stroke="#1e1e1e" stroke-width="1" fill="none"></path></g></g><mask></mask></svg>