<?xml version="1.0" standalone="no"?>
<!DOCTYPE svg PUBLIC "-//W3C//DTD SVG 1.1//EN" "http://www.w3.org/Graphics/SVG/1.1/DTD/svg11.dtd">
<svg version="1.1" xmlns="http://www.w3.org/2000/svg" viewBox="0 0 78.23697857615525 70.30443316797079" width="78.23697857615525" height="70.30443316797079"><!-- svg-source:excalidraw --><metadata></metadata><defs><style class="style-fonts">
      </style></defs><g stroke-linecap="round" transform="translate(29.93484891016533 8.281398569702674) rotate(324.8034357286273 3.4813159116839643 10.649446906977062)"><path d="M1.68 2.1 C2.27 0.67, 3.39 -1.21, 4.07 -0.71 C4.75 -0.22, 5.31 2.95, 5.76 5.07 C6.22 7.19, 6.88 10, 6.8 12.01 C6.72 14.02, 5.84 15.72, 5.28 17.13 C4.71 18.53, 4.07 20.04, 3.4 20.44 C2.74 20.84, 1.79 20.71, 1.28 19.53 C0.78 18.34, 0.43 15.44, 0.36 13.32 C0.29 11.19, 0.58 9, 0.85 6.78 C1.12 4.56, 1.49 1.23, 1.99 -0.02 C2.48 -1.26, 3.58 -0.88, 3.82 -0.7 M3.63 1 C4.3 0.63, 5.65 0.92, 5.98 1.76 C6.31 2.61, 5.48 4.14, 5.6 6.08 C5.72 8.02, 6.85 11.03, 6.68 13.41 C6.52 15.79, 5.3 18.9, 4.6 20.36 C3.91 21.81, 3.19 22.75, 2.53 22.15 C1.87 21.55, 1.03 18.62, 0.66 16.75 C0.28 14.88, 0.06 13, 0.28 10.95 C0.49 8.89, 1.34 6.23, 1.94 4.44 C2.53 2.65, 3.45 0.68, 3.87 0.22 C4.29 -0.24, 4.59 1.7, 4.48 1.68" stroke="#1e1e1e" stroke-width="1" fill="none"></path></g><g stroke-linecap="round" transform="translate(41.806188740386915 8.874965561213742) rotate(35.19656427137271 3.4813159116839643 10.649446906977062)"><path d="M3.67 0.99 C4.15 1.39, 4.68 2.56, 5.28 4.33 C5.88 6.1, 7.13 9.23, 7.25 11.61 C7.37 14, 6.5 17.08, 6.01 18.65 C5.53 20.22, 5.16 21.03, 4.33 21.05 C3.5 21.06, 1.68 19.95, 1.04 18.75 C0.4 17.56, 0.67 15.76, 0.52 13.86 C0.36 11.97, -0.09 9.52, 0.12 7.36 C0.33 5.2, 1.02 1.97, 1.78 0.91 C2.53 -0.16, 4.06 0.88, 4.64 0.97 C5.22 1.06, 5.31 1.29, 5.26 1.45 M3.16 1.12 C3.51 0.67, 4.34 -0.11, 4.82 1.12 C5.3 2.34, 5.74 6.02, 6.02 8.48 C6.31 10.94, 6.51 14.06, 6.52 15.89 C6.52 17.73, 6.65 18.75, 6.07 19.49 C5.49 20.24, 3.79 20.86, 3.03 20.37 C2.28 19.89, 1.95 18.46, 1.55 16.6 C1.15 14.75, 0.66 11.29, 0.62 9.24 C0.58 7.19, 1.05 5.99, 1.31 4.32 C1.57 2.64, 2.09 -0.13, 2.16 -0.8 C2.24 -1.47, 1.69 0.14, 1.77 0.3" stroke="#1e1e1e" stroke-width="1" fill="none"></path></g><g stroke-linecap="round"><g transform="translate(21.084810573207278 58.69983390792163) rotate(0 17.406352026062223 -0.2522659713922053)"><path d="M-0.24 0.28 C8.14 0.22, 18.83 0.34, 35.4 -0.67 M-0.18 0.26 C10.83 -0.4, 20.43 0.86, 35.32 0.48" stroke="#1e1e1e" stroke-width="1" fill="none"></path></g></g><mask></mask><g stroke-linecap="round"><g transform="translate(21.35191571938708 59.15984832634274) rotate(0 -5.49049467147745 -17.80700974533221)"><path d="M1.58 -0.01 C-1.64 -7, -4.72 -18.48, -11.35 -36.6 M-0.03 -0.59 C-2.2 -8.97, -6.53 -17.35, -10.96 -35.79" stroke="#1e1e1e" stroke-width="1" fill="none"></path></g></g><mask></mask><g stroke-linecap="round"><g transform="translate(55.46926115283827 59.364348110801586) rotate(0 5.49049467147745 -17.80700974533221)"><path d="M-0.32 0.94 C2.19 -9.35, 4.91 -22.2, 12.77 -36.46 M-0.53 -0.12 C5.06 -13.28, 9.19 -27.65, 10.51 -35.89" stroke="#1e1e1e" stroke-width="1" fill="none"></path></g></g><mask></mask><g stroke-linecap="round"><g transform="translate(12.448410846721117 28.591148263522484) rotate(0 25.671772382853874 0.4451752436333152)"><path d="M2.58 0.1 C15.07 -2.92, 31.48 -3.55, 54.88 -2.47 M-1.86 -1.1 C14.99 -2.51, 25.35 -1.88, 50.75 1.15" stroke="#1e1e1e" stroke-width="1" fill="none"></path></g></g><mask></mask><g stroke-linecap="round" transform="translate(45.17468141721292 9.928546971145977) rotate(50.71059313749923 3.4813159116839643 10.649446906977062)"><path d="M4.42 0.98 C5.27 1.24, 6.1 2.5, 6.57 4.16 C7.04 5.81, 7.28 8.58, 7.23 10.91 C7.18 13.24, 6.95 16.39, 6.28 18.13 C5.6 19.86, 3.92 21.01, 3.18 21.32 C2.44 21.62, 2.5 21.16, 1.83 19.96 C1.17 18.77, -0.47 16.47, -0.82 14.14 C-1.18 11.82, -0.81 8.29, -0.29 6 C0.23 3.71, 1.3 1.09, 2.31 0.38 C3.31 -0.34, 5.34 1.55, 5.76 1.71 C6.19 1.87, 4.86 1.48, 4.85 1.35 M4.94 0.96 C5.21 1.57, 5.43 3, 5.63 4.98 C5.82 6.95, 5.92 10.47, 6.08 12.8 C6.24 15.13, 6.85 17.56, 6.57 18.96 C6.29 20.35, 5.58 21.45, 4.42 21.18 C3.27 20.91, 0.33 19.14, -0.34 17.34 C-1.02 15.54, 0.11 12.73, 0.36 10.36 C0.61 8, 0.56 4.6, 1.14 3.16 C1.71 1.72, 3.09 2.22, 3.8 1.74 C4.52 1.25, 5.06 0.43, 5.43 0.26 C5.8 0.09, 6.37 0.52, 6.03 0.71" stroke="#1e1e1e" stroke-width="1" fill="none"></path></g><g stroke-linecap="round" transform="translate(27.664455167636106 10.225330466901426) rotate(310.0607844578742 3.4813159116839643 10.649446906977062)"><path d="M3.22 0.98 C3.92 0.23, 5.26 -0.46, 5.71 0.36 C6.16 1.19, 5.76 3.84, 5.93 5.95 C6.09 8.05, 6.89 10.87, 6.71 13.02 C6.52 15.16, 5.44 17.45, 4.81 18.8 C4.18 20.15, 3.51 21.12, 2.94 21.11 C2.37 21.09, 1.96 20.07, 1.39 18.72 C0.81 17.37, -0.46 15.4, -0.51 12.99 C-0.56 10.58, 0.59 6.54, 1.08 4.26 C1.57 1.98, 2.1 0.08, 2.46 -0.69 C2.81 -1.47, 3.19 -0.66, 3.2 -0.39 M1.07 0.47 C1.86 -0.57, 3.06 -1.01, 4 -0.24 C4.94 0.53, 6.03 2.77, 6.71 5.07 C7.38 7.38, 8.2 11.3, 8.05 13.58 C7.9 15.86, 6.42 17.54, 5.8 18.76 C5.19 19.98, 5.15 20.8, 4.37 20.92 C3.58 21.03, 1.91 20.7, 1.08 19.45 C0.24 18.19, -0.6 15.49, -0.65 13.37 C-0.7 11.25, 0.1 8.76, 0.78 6.73 C1.46 4.69, 3.36 2.17, 3.42 1.14 C3.49 0.12, 1.35 0.49, 1.16 0.59" stroke="#1e1e1e" stroke-width="1" fill="none"></path></g></svg>