<?xml version="1.0" standalone="no"?>
<!DOCTYPE svg PUBLIC "-//W3C//DTD SVG 1.1//EN" "http://www.w3.org/Graphics/SVG/1.1/DTD/svg11.dtd">
<svg version="1.1" xmlns="http://www.w3.org/2000/svg" viewBox="0 0 77.92792136018807 118.29433068444007" width="77.92792136018807" height="118.29433068444007"><!-- svg-source:excalidraw --><metadata></metadata><defs><style class="style-fonts">
      </style></defs><g stroke-linecap="round"><g transform="translate(21.536103481027112 106.80245221936673) rotate(0 17.406352026062223 -0.2522659713922053)"><path d="M-0.62 -1.99 C9.67 0.9, 22.32 0.77, 36.51 -1.31 M-0.73 0.92 C9.9 -0.6, 19.71 -1.2, 34.76 0.1" stroke="#1e1e1e" stroke-width="1" fill="none"></path></g></g><mask></mask><g stroke-linecap="round"><g transform="translate(21.80320862720646 107.26246663778772) rotate(0 -5.490494671477563 -17.80700974533221)"><path d="M-1.86 0.78 C-3.03 -7.11, -3.01 -16.56, -11.13 -37.61 M-0.29 -0.53 C-3.45 -10.75, -5.88 -19.04, -11.8 -34.96" stroke="#1e1e1e" stroke-width="1" fill="none"></path></g></g><mask></mask><g stroke-linecap="round"><g transform="translate(55.92055406065765 107.46696642224663) rotate(0 5.490494671477563 -17.80700974533221)"><path d="M-0.72 0.83 C4.23 -7.99, 4.59 -16.32, 10.53 -37.07 M-0.66 -0.98 C4.35 -13.3, 7.89 -27.22, 10.56 -34.73" stroke="#1e1e1e" stroke-width="1" fill="none"></path></g></g><mask></mask><g stroke-linecap="round"><g transform="translate(12.899703754540951 76.69376657496753) rotate(0 25.67177238285376 0.44517524363328675)"><path d="M3.4 -1.6 C17.11 -4.11, 33.91 -2.73, 55.03 -0.27 M-0.11 1.22 C11.03 2.53, 24.52 3.21, 50.66 1.45" stroke="#1e1e1e" stroke-width="1" fill="none"></path></g></g><mask></mask><g stroke-linecap="round" transform="translate(20.91978219589555 22.596158895211033) rotate(0 11.939372415613889 6.185457998450545)"><path d="M14.57 0.47 C16.92 0.44, 19.46 0.41, 21.06 1.4 C22.67 2.4, 24 4.92, 24.2 6.44 C24.4 7.97, 23.76 9.65, 22.26 10.55 C20.76 11.45, 17.73 11.53, 15.2 11.83 C12.66 12.13, 9.33 12.89, 7.07 12.35 C4.81 11.81, 2.88 9.78, 1.64 8.59 C0.4 7.4, -1.19 6.58, -0.36 5.2 C0.47 3.81, 3.82 1.02, 6.63 0.27 C9.44 -0.48, 14.49 0.62, 16.52 0.69 C18.55 0.76, 19.1 0.67, 18.82 0.68 M8.53 -0.55 C10.57 -1.07, 12.82 1.24, 15.04 1.69 C17.27 2.15, 20.19 1.33, 21.87 2.19 C23.55 3.06, 25.32 5.27, 25.13 6.89 C24.93 8.5, 22.64 11.04, 20.72 11.89 C18.8 12.74, 16.25 11.96, 13.61 11.97 C10.97 11.98, 7.32 12.67, 4.87 11.96 C2.41 11.24, -0.58 9.3, -1.13 7.69 C-1.69 6.07, 0.13 3.4, 1.54 2.27 C2.96 1.14, 6.55 1.32, 7.36 0.89 C8.17 0.47, 6.13 -0.45, 6.4 -0.29" stroke="#1e1e1e" stroke-width="1" fill="none"></path></g><g stroke-linecap="round" transform="translate(24.228282985764963 16.986092338476737) rotate(44.0289780689195 11.939372415613889 6.185457998450545)"><path d="M6.88 0.72 C9.14 0, 12.96 -0.18, 15.25 0 C17.55 0.19, 19.06 0.68, 20.63 1.82 C22.21 2.95, 24.74 5.31, 24.73 6.82 C24.72 8.34, 22.34 10.04, 20.57 10.89 C18.8 11.74, 16.78 11.97, 14.09 11.92 C11.4 11.88, 6.55 11.47, 4.44 10.64 C2.33 9.8, 2.03 8.1, 1.45 6.91 C0.87 5.72, -0.55 4.54, 0.95 3.5 C2.45 2.45, 8.39 1.22, 10.46 0.64 C12.53 0.06, 13.41 0.1, 13.38 0.01 M9.34 1.42 C11.86 1.3, 14.9 1.09, 17.37 1.62 C19.84 2.14, 23.29 3.22, 24.16 4.56 C25.04 5.9, 23.5 8.25, 22.62 9.65 C21.73 11.05, 20.76 12.45, 18.84 12.96 C16.92 13.46, 13.64 12.93, 11.1 12.71 C8.56 12.49, 5.68 12.64, 3.61 11.64 C1.53 10.65, -1.41 8.28, -1.35 6.74 C-1.3 5.19, 1.9 3.65, 3.94 2.38 C5.98 1.1, 9.7 -0.47, 10.9 -0.94 C12.11 -1.4, 11.33 -0.68, 11.14 -0.41" stroke="#1e1e1e" stroke-width="1" fill="none"></path></g><g stroke-linecap="round" transform="translate(28.543718798636746 15.259918013327706) rotate(70.55996517182433 11.939372415613889 6.185457998450545)"><path d="M15.46 1.12 C17.65 1.65, 19.76 2.99, 21.16 3.88 C22.57 4.77, 24.12 5.15, 23.9 6.46 C23.67 7.78, 21.74 10.93, 19.82 11.77 C17.9 12.61, 14.77 11.45, 12.35 11.48 C9.93 11.51, 7.17 12.6, 5.3 11.95 C3.42 11.29, 1.8 8.96, 1.1 7.58 C0.4 6.19, 0.19 4.81, 1.09 3.63 C2 2.45, 3.48 1.03, 6.5 0.5 C9.52 -0.03, 16.91 0.2, 19.2 0.44 C21.5 0.69, 20.42 1.65, 20.28 1.98 M12.74 -1.12 C14.99 -0.66, 18.7 2.3, 20.38 3.34 C22.06 4.38, 22.78 4.04, 22.82 5.11 C22.85 6.17, 21.98 8.35, 20.6 9.72 C19.21 11.1, 16.83 12.88, 14.5 13.36 C12.18 13.84, 8.96 13.51, 6.62 12.6 C4.28 11.7, 1.44 9.45, 0.47 7.91 C-0.51 6.38, 0.04 4.7, 0.77 3.38 C1.51 2.07, 2.81 0.47, 4.88 0.01 C6.95 -0.44, 11.93 0.42, 13.2 0.67 C14.46 0.93, 12.31 1.43, 12.47 1.54" stroke="#1e1e1e" stroke-width="1" fill="none"></path></g><g stroke-linecap="round" transform="translate(32.571458890651684 15.547613734185802) rotate(104.5742161980392 11.939372415613889 6.185457998450545)"><path d="M6.87 0.97 C9.02 0.12, 13.23 -0.64, 15.73 -0.44 C18.23 -0.23, 20.58 0.96, 21.86 2.17 C23.14 3.38, 23.63 5.33, 23.41 6.82 C23.18 8.32, 22.13 10.23, 20.52 11.16 C18.92 12.09, 16.31 12.39, 13.78 12.41 C11.25 12.44, 7.43 12.12, 5.36 11.3 C3.28 10.48, 1.91 8.63, 1.35 7.47 C0.79 6.32, 0.95 5.4, 1.99 4.36 C3.02 3.32, 6.33 1.86, 7.57 1.23 C8.81 0.59, 9.36 0.76, 9.43 0.54 M9.54 0.4 C11.53 -0.43, 13.15 -0.94, 15.07 -0.71 C17 -0.48, 19.65 0.59, 21.07 1.76 C22.49 2.94, 24.05 4.57, 23.59 6.32 C23.12 8.08, 20.32 11.41, 18.27 12.31 C16.22 13.21, 13.5 11.96, 11.27 11.73 C9.04 11.51, 6.69 11.76, 4.89 10.97 C3.09 10.18, 1.06 8.5, 0.48 6.98 C-0.11 5.46, 0.19 3.2, 1.38 1.86 C2.58 0.53, 6.74 -1.05, 7.67 -1.03 C8.59 -1.02, 6.57 1.84, 6.94 1.93" stroke="#1e1e1e" stroke-width="1" fill="none"></path></g><g stroke-linecap="round" transform="translate(37.48635897789745 19.286433891331853) rotate(126.64193155629997 11.939372415613889 6.185457998450545)"><path d="M12.55 -0.61 C15.1 -0.57, 18.44 1.19, 20.26 2.28 C22.09 3.36, 23.05 4.57, 23.5 5.87 C23.96 7.17, 24.24 9.09, 22.99 10.07 C21.73 11.06, 18.29 11.51, 15.95 11.79 C13.61 12.07, 11.35 12.21, 8.95 11.77 C6.56 11.33, 3.12 10.21, 1.57 9.16 C0.03 8.1, -0.58 6.67, -0.32 5.44 C-0.06 4.22, 0.63 2.67, 3.13 1.81 C5.64 0.94, 12.65 0.32, 14.71 0.25 C16.77 0.18, 15.77 1.26, 15.48 1.39 M17.37 1.04 C20.05 1.27, 22.49 1.34, 23.48 2.63 C24.48 3.93, 24.25 7.59, 23.31 8.8 C22.37 10.01, 19.85 9.22, 17.85 9.9 C15.85 10.58, 13.61 12.76, 11.32 12.88 C9.03 12.99, 6 11.45, 4.1 10.58 C2.2 9.72, 0.42 8.8, -0.07 7.69 C-0.56 6.57, -0.16 5.05, 1.15 3.89 C2.47 2.73, 5.02 1.5, 7.81 0.71 C10.61 -0.07, 16.45 -0.88, 17.94 -0.81 C19.43 -0.74, 17.01 0.99, 16.76 1.13" stroke="#1e1e1e" stroke-width="1" fill="none"></path></g><g stroke-linecap="round" transform="translate(40.013215517332355 25.289268244923733) rotate(170.6709096252194 11.939372415613889 6.185457998450545)"><path d="M13.03 0.89 C15.3 1.09, 17.79 1.52, 19.68 2.4 C21.57 3.27, 24 5, 24.36 6.14 C24.73 7.28, 23.17 8.29, 21.88 9.24 C20.6 10.18, 19.07 11.37, 16.67 11.79 C14.26 12.21, 10.07 12.14, 7.46 11.74 C4.84 11.34, 2.35 10.46, 0.98 9.38 C-0.39 8.3, -1.46 6.57, -0.76 5.26 C-0.05 3.94, 2.85 2.22, 5.21 1.51 C7.56 0.79, 11.78 1.09, 13.39 0.97 C14.99 0.84, 14.64 0.94, 14.84 0.75 M14.44 -0.64 C16.68 -0.44, 19.1 2.38, 20.44 3.28 C21.79 4.17, 22.36 3.52, 22.5 4.72 C22.65 5.92, 22.6 9.23, 21.31 10.46 C20.02 11.68, 17.27 11.74, 14.76 12.06 C12.25 12.38, 8.69 12.78, 6.27 12.36 C3.84 11.95, 1.24 10.85, 0.2 9.58 C-0.84 8.32, -1.1 6.41, 0.02 4.76 C1.15 3.11, 4.65 0.39, 6.95 -0.31 C9.25 -1, 12.69 0.69, 13.83 0.6 C14.97 0.51, 13.96 -1.05, 13.8 -0.86" stroke="#1e1e1e" stroke-width="1" fill="none"></path></g><g stroke-linecap="round" transform="translate(38.82275988833635 29.782093575515773) rotate(197.20189672812427 11.939372415613889 6.185457998450545)"><path d="M8.17 1.14 C10.41 0.68, 14.75 1.01, 17.1 1.34 C19.46 1.68, 21.04 2.16, 22.28 3.14 C23.52 4.13, 25.06 5.96, 24.53 7.25 C24 8.54, 21.37 9.99, 19.11 10.88 C16.85 11.78, 13.68 12.58, 10.97 12.6 C8.27 12.63, 4.59 11.96, 2.9 11.05 C1.2 10.15, 1.09 8.38, 0.81 7.16 C0.54 5.95, -0.31 4.89, 1.25 3.75 C2.81 2.61, 8 1.08, 10.2 0.34 C12.4 -0.4, 14.25 -0.84, 14.44 -0.69 M13.9 1.39 C15.93 1.46, 18.19 0.19, 19.83 1.09 C21.48 1.99, 23.54 5.29, 23.77 6.79 C24 8.29, 22.88 9.04, 21.19 10.07 C19.51 11.1, 16.34 12.57, 13.66 12.98 C10.98 13.39, 7.36 13.24, 5.1 12.52 C2.85 11.79, 0.61 10.28, 0.13 8.64 C-0.35 7, 1.17 3.92, 2.22 2.7 C3.28 1.48, 4.42 1.93, 6.47 1.33 C8.52 0.72, 13.34 -0.92, 14.53 -0.92 C15.73 -0.93, 13.96 1.11, 13.65 1.3" stroke="#1e1e1e" stroke-width="1" fill="none"></path></g><g stroke-linecap="round" transform="translate(36.18811369659488 32.84217503210709) rotate(231.21614775433918 11.939372415613889 6.185457998450545)"><path d="M17.68 1.47 C19.93 1.77, 21.44 2.42, 22.56 3.44 C23.67 4.45, 25.04 6.3, 24.38 7.57 C23.72 8.84, 20.93 10.24, 18.6 11.08 C16.26 11.91, 13.03 12.62, 10.34 12.58 C7.65 12.54, 4.04 11.78, 2.44 10.82 C0.84 9.87, 0.89 8.06, 0.75 6.84 C0.61 5.61, 0.37 4.53, 1.61 3.48 C2.84 2.42, 5.16 1.06, 8.15 0.52 C11.14 -0.02, 17.51 -0.09, 19.55 0.23 C21.58 0.54, 20.55 2.08, 20.37 2.42 M7.84 -1.03 C10.21 -1.52, 14.66 0.41, 17.21 1.18 C19.76 1.94, 22.14 2.34, 23.13 3.58 C24.13 4.83, 24.09 7.19, 23.2 8.66 C22.3 10.13, 19.96 11.7, 17.77 12.38 C15.57 13.07, 12.18 13.29, 10 12.75 C7.82 12.21, 6.28 10.09, 4.68 9.14 C3.07 8.19, 0.69 8.36, 0.36 7.08 C0.04 5.8, 1.33 2.42, 2.72 1.45 C4.11 0.48, 7.84 1.51, 8.71 1.23 C9.59 0.96, 8.08 -0.32, 7.97 -0.19" stroke="#1e1e1e" stroke-width="1" fill="none"></path></g><g stroke-linecap="round" transform="translate(33.17157012312509 34.32720432053429) rotate(240.79062638048129 11.939372415613889 6.185457998450545)"><path d="M16.3 1.42 C18.47 1.84, 20.78 1.95, 22.01 3.07 C23.25 4.18, 24.29 6.66, 23.7 8.09 C23.1 9.51, 20.62 10.85, 18.43 11.62 C16.25 12.4, 13.21 12.97, 10.58 12.72 C7.94 12.47, 4.48 10.98, 2.64 10.13 C0.79 9.28, -0.51 8.87, -0.5 7.61 C-0.48 6.34, 1.03 3.78, 2.75 2.56 C4.47 1.34, 7.23 0.6, 9.85 0.3 C12.47 0, 16.77 0.39, 18.49 0.75 C20.22 1.12, 20.36 2.37, 20.18 2.51 M9.96 0.76 C12.44 0.4, 14.72 -0.95, 17.14 -0.44 C19.55 0.07, 23.45 2.17, 24.47 3.8 C25.48 5.42, 24.29 8.05, 23.25 9.28 C22.21 10.51, 20.24 10.43, 18.24 11.18 C16.25 11.93, 14.03 13.95, 11.28 13.8 C8.54 13.64, 3.4 11.45, 1.75 10.23 C0.11 9.01, 1.47 7.71, 1.43 6.47 C1.39 5.23, 0.15 4.06, 1.49 2.8 C2.84 1.54, 8 -0.85, 9.5 -1.09 C11.01 -1.34, 10.58 0.93, 10.53 1.33" stroke="#1e1e1e" stroke-width="1" fill="none"></path></g><g stroke-linecap="round" transform="translate(26.660310464038048 34.17713133998154) rotate(284.8196044494009 11.939372415613889 6.185457998450545)"><path d="M9.42 -0.51 C11.98 -0.86, 16.22 0.31, 18.49 1.15 C20.76 2, 22.32 3.29, 23.04 4.58 C23.77 5.86, 23.88 7.75, 22.85 8.86 C21.81 9.97, 19.14 10.54, 16.83 11.26 C14.52 11.98, 11.27 13.41, 8.98 13.2 C6.68 12.99, 4.42 11.18, 3.07 10 C1.72 8.82, 0.96 7.5, 0.87 6.1 C0.77 4.7, 0.73 2.56, 2.51 1.62 C4.29 0.68, 9.86 0.71, 11.54 0.46 C13.21 0.21, 12.57 0.23, 12.56 0.11 M7.41 -0.86 C9.83 -1.49, 15.05 -0.62, 17.54 0.23 C20.03 1.08, 21.32 3.11, 22.37 4.25 C23.41 5.38, 24.09 5.66, 23.82 7.03 C23.54 8.4, 22.91 11.58, 20.71 12.47 C18.51 13.36, 13.14 12.59, 10.62 12.36 C8.1 12.12, 7.52 11.82, 5.58 11.04 C3.65 10.27, -0.33 9.23, -1 7.69 C-1.68 6.15, -0.12 2.86, 1.52 1.82 C3.16 0.78, 7.85 1.57, 8.83 1.44 C9.81 1.32, 7.7 1.4, 7.4 1.09" stroke="#1e1e1e" stroke-width="1" fill="none"></path></g><g stroke-linecap="round" transform="translate(23.047689273495962 31.252813951345956) rotate(311.35059155230573 11.939372415613889 6.185457998450545)"><path d="M16.88 0.72 C19.28 1.29, 21.27 2.51, 22.35 3.72 C23.43 4.92, 24.06 6.79, 23.39 7.97 C22.72 9.14, 20.46 9.86, 18.35 10.76 C16.25 11.65, 13.11 13.33, 10.77 13.32 C8.42 13.31, 5.93 11.73, 4.29 10.69 C2.66 9.64, 1.43 8.42, 0.95 7.03 C0.47 5.65, 0.21 3.41, 1.41 2.36 C2.61 1.31, 5.66 1.02, 8.14 0.72 C10.61 0.42, 14.75 0.68, 16.27 0.56 C17.78 0.43, 17.27 -0.15, 17.22 -0.01 M15.86 -0.03 C18.37 0.55, 20.04 2.47, 21.4 3.49 C22.76 4.52, 23.92 4.73, 24.01 6.13 C24.11 7.52, 23.92 10.82, 21.98 11.85 C20.03 12.87, 14.86 12.34, 12.36 12.3 C9.87 12.26, 9.15 12.2, 6.99 11.58 C4.83 10.96, 0.45 10.06, -0.59 8.57 C-1.64 7.08, -0.56 3.76, 0.74 2.64 C2.04 1.51, 5.04 2.12, 7.22 1.81 C9.4 1.49, 12.83 1.25, 13.81 0.76 C14.79 0.28, 12.93 -1.32, 13.07 -1.08" stroke="#1e1e1e" stroke-width="1" fill="none"></path></g><g stroke-linecap="round" transform="translate(21.333255168533015 27.59683600059725) rotate(345.3648425785205 11.939372415613889 6.185457998450545)"><path d="M8.33 0.58 C10.54 0.18, 14.28 0.49, 16.53 0.9 C18.79 1.31, 20.79 1.77, 21.87 3.06 C22.95 4.34, 23.41 7.24, 23.02 8.59 C22.63 9.94, 21.36 10.5, 19.54 11.15 C17.71 11.79, 14.78 12.62, 12.06 12.46 C9.33 12.31, 5.24 11.07, 3.19 10.22 C1.13 9.36, 0.1 8.59, -0.25 7.33 C-0.6 6.08, -0.45 4.04, 1.08 2.7 C2.61 1.35, 7.52 -0.36, 8.91 -0.74 C10.29 -1.12, 9.22 0.22, 9.4 0.41 M7.26 1.59 C9.23 1, 12.9 -0.49, 15.54 -0.04 C18.19 0.41, 21.96 3.14, 23.14 4.3 C24.31 5.46, 22.88 5.81, 22.61 6.91 C22.35 8, 23.4 9.87, 21.53 10.87 C19.67 11.86, 14.25 13.02, 11.43 12.87 C8.62 12.71, 6.34 10.63, 4.63 9.93 C2.92 9.23, 1.82 9.67, 1.15 8.69 C0.48 7.7, -0.17 5.6, 0.62 4.01 C1.41 2.43, 4.7 -0.52, 5.89 -0.85 C7.09 -1.17, 7.42 1.89, 7.78 2.06" stroke="#1e1e1e" stroke-width="1" fill="none"></path></g><g stroke-linecap="round"><g transform="translate(42.91978219589555 47.913168228763425) rotate(0 -1 15.199999999999932)"><path d="M-1.49 1.12 C-1.04 8.06, -1.59 15.93, -1.79 31.8 M-0.39 0.18 C-0.39 7.65, -1.02 16.88, -1.84 31.14" stroke="#1e1e1e" stroke-width="1" fill="none"></path></g></g><mask></mask><g stroke-linecap="round" transform="translate(20.07758298565932 68.11866971858171) rotate(29.999999999999964 9.258676541256136 5.55520592475375)"><path d="M10.76 0.2 C12.61 0.54, 14.8 1.74, 16.14 2.55 C17.47 3.36, 18.88 3.97, 18.79 5.07 C18.7 6.17, 16.96 8.09, 15.59 9.14 C14.22 10.18, 12.45 11.3, 10.57 11.33 C8.69 11.35, 5.96 9.98, 4.3 9.29 C2.63 8.59, 1.12 7.95, 0.58 7.13 C0.04 6.31, 0.44 5.5, 1.07 4.35 C1.7 3.19, 2.34 0.89, 4.35 0.17 C6.36 -0.54, 11.51 -0.17, 13.14 0.06 C14.78 0.3, 14.29 1.29, 14.17 1.59 M5.6 0.87 C7.18 0.52, 9.38 0.58, 11.11 0.62 C12.84 0.65, 14.62 0.03, 15.98 1.09 C17.34 2.14, 19.57 5.36, 19.27 6.94 C18.97 8.52, 15.57 9.92, 14.2 10.56 C12.83 11.2, 12.56 10.78, 11.04 10.76 C9.52 10.74, 6.76 10.94, 5.08 10.45 C3.39 9.96, 1.64 9.22, 0.94 7.83 C0.23 6.43, 0.09 3.12, 0.84 2.08 C1.59 1.04, 4.52 2.05, 5.44 1.57 C6.36 1.09, 6.26 -0.82, 6.37 -0.79" stroke="#1e1e1e" stroke-width="1" fill="none"></path></g><g stroke-linecap="round" transform="translate(25.632164143444243 64.73032443231364) rotate(70.55996517182433 9.259301308225531 5.651577329685551)"><path d="M9.79 -0.78 C11.7 -0.91, 13.5 0.23, 14.97 1.21 C16.44 2.18, 18.24 4, 18.62 5.08 C19 6.16, 18.29 6.7, 17.25 7.69 C16.2 8.67, 14.21 10.27, 12.37 10.97 C10.53 11.67, 8.18 12.39, 6.19 11.88 C4.19 11.37, 1.3 9.19, 0.4 7.92 C-0.5 6.64, 0.17 5.2, 0.78 4.22 C1.4 3.24, 2.49 2.58, 4.08 2.04 C5.68 1.5, 9.39 1.33, 10.35 1 C11.32 0.67, 9.99 0.13, 9.88 0.06 M9.55 -1.4 C11.71 -1.25, 15.74 1.28, 17.01 2.59 C18.27 3.89, 17.02 5.38, 17.16 6.42 C17.3 7.46, 18.61 7.95, 17.84 8.82 C17.07 9.69, 14.59 11.18, 12.54 11.65 C10.49 12.13, 7.58 12.47, 5.57 11.66 C3.55 10.85, 1.35 7.91, 0.47 6.8 C-0.42 5.69, -0.51 6.22, 0.25 5.01 C1.01 3.79, 3.3 0.2, 5.03 -0.49 C6.76 -1.18, 9.57 0.54, 10.63 0.86 C11.7 1.19, 11.32 1.6, 11.4 1.47" stroke="#1e1e1e" stroke-width="1" fill="none"></path></g><g stroke-linecap="round" transform="translate(41.070420691391064 69.50801775314028) rotate(349.2306723756573 9.258676541256136 5.55520592475375)"><path d="M5.95 0.74 C7.75 0.15, 10.89 -0.54, 12.71 -0.02 C14.54 0.49, 15.86 2.8, 16.91 3.81 C17.96 4.83, 19.4 5.04, 18.99 6.09 C18.59 7.14, 16.12 9.23, 14.47 10.12 C12.81 11.02, 10.97 11.73, 9.08 11.47 C7.18 11.2, 4.43 9.32, 3.09 8.55 C1.74 7.78, 1.29 7.86, 1 6.83 C0.71 5.8, 0.22 3.35, 1.36 2.37 C2.51 1.39, 6.67 1.47, 7.87 0.96 C9.08 0.46, 8.65 -0.66, 8.6 -0.65 M11.66 -0.77 C13.76 -0.95, 16.34 0.16, 17.24 1.23 C18.14 2.3, 17.15 4.49, 17.08 5.65 C17.02 6.81, 17.86 7.32, 16.84 8.19 C15.83 9.05, 13.28 10.66, 10.98 10.83 C8.68 10.99, 4.66 9.92, 3.04 9.17 C1.43 8.42, 1.41 7.48, 1.28 6.35 C1.15 5.22, 1.64 3.27, 2.26 2.4 C2.87 1.53, 3.52 1.72, 4.96 1.15 C6.4 0.58, 9.92 -1.12, 10.9 -1.02 C11.87 -0.93, 10.81 1.3, 10.83 1.72" stroke="#1e1e1e" stroke-width="1" fill="none"></path></g><g stroke-linecap="round" transform="translate(36.9088540181383 64.47363385790777) rotate(308.6707072038329 9.259301308225531 5.651577329685551)"><path d="M12.62 -0.04 C14.42 0.38, 15.8 2.78, 16.87 3.81 C17.93 4.85, 19.4 5.08, 19.02 6.15 C18.63 7.23, 16.19 9.34, 14.55 10.26 C12.91 11.18, 11.08 11.91, 9.18 11.66 C7.28 11.41, 4.52 9.54, 3.16 8.76 C1.8 7.98, 1.32 8.04, 1.01 6.99 C0.7 5.94, 0.28 3.45, 1.31 2.46 C2.33 1.47, 5 1.51, 7.14 1.07 C9.28 0.64, 12.99 -0.17, 14.15 -0.13 C15.31 -0.09, 14.16 1.24, 14.1 1.31 M13.57 -0.69 C15.13 -0.17, 15.37 1.73, 16.34 2.81 C17.31 3.89, 19.5 4.6, 19.38 5.8 C19.26 7.01, 17.57 9.29, 15.61 10.06 C13.64 10.83, 9.59 10.59, 7.59 10.43 C5.6 10.26, 4.68 9.93, 3.63 9.08 C2.58 8.24, 1.72 6.39, 1.3 5.38 C0.89 4.37, 0.37 4.1, 1.15 3.02 C1.94 1.94, 4.16 -0.9, 6.01 -1.08 C7.87 -1.26, 11.2 1.53, 12.3 1.95 C13.39 2.37, 12.28 1.75, 12.56 1.42" stroke="#1e1e1e" stroke-width="1" fill="none"></path></g></svg>