<?xml version="1.0" standalone="no"?>
<!DOCTYPE svg PUBLIC "-//W3C//DTD SVG 1.1//EN" "http://www.w3.org/Graphics/SVG/1.1/DTD/svg11.dtd">
<svg version="1.1" xmlns="http://www.w3.org/2000/svg" viewBox="0 0 76.94763840356609 88.86908336323688" width="76.94763840356609" height="88.86908336323688"><!-- svg-source:excalidraw --><metadata></metadata><defs><style class="style-fonts">
      </style></defs><g stroke-linecap="round" transform="translate(10 46.64011773759955) rotate(0 13.800000000000182 6.600000000000023)"><path d="M14.16 0.54 C16.98 0.37, 21.86 0.49, 24.16 1.25 C26.45 2, 27.71 3.43, 27.91 5.06 C28.11 6.7, 27.2 9.74, 25.36 11.07 C23.52 12.39, 19.81 12.82, 16.88 13.02 C13.95 13.23, 10.31 12.74, 7.77 12.29 C5.23 11.83, 2.7 11.6, 1.64 10.29 C0.58 8.98, 0.87 5.93, 1.42 4.42 C1.96 2.9, 2.21 2.03, 4.93 1.2 C7.66 0.38, 15.43 -0.55, 17.77 -0.53 C20.1 -0.51, 19.13 1.08, 18.95 1.34 M6.44 -0.63 C8.95 -1.38, 13.67 0.46, 16.75 1.09 C19.83 1.73, 23 2.07, 24.93 3.17 C26.86 4.28, 28.54 6.52, 28.32 7.72 C28.11 8.92, 25.6 9.69, 23.64 10.38 C21.67 11.07, 19.52 11.68, 16.53 11.86 C13.54 12.05, 8.12 11.93, 5.69 11.47 C3.26 11.02, 2.54 10.41, 1.95 9.13 C1.36 7.85, 1.01 5.27, 2.15 3.79 C3.29 2.3, 7.68 0.61, 8.78 0.2 C9.88 -0.21, 9.03 1.13, 8.75 1.3" stroke="#1e1e1e" stroke-width="1" fill="none"></path></g><g stroke-linecap="round"><g transform="translate(11.600000000000364 55.040117737599644) rotate(0 12.799999999999955 -0.8000000000000682)"><path d="M0 0 C9.8 -0.61, 19.59 -1.22, 25.6 -1.6 M0 0 C6.58 -0.41, 13.15 -0.82, 25.6 -1.6" stroke="#1e1e1e" stroke-width="1" fill="none"></path></g></g><mask></mask><g stroke-linecap="round"><g transform="translate(30.799999999999272 53.43036164003854) rotate(0 -2.195121951219562 -2.439024390243844)"><path d="M0 0 C-1.2 -1.33, -2.4 -2.67, -4.39 -4.88 M0 0 C-1.49 -1.65, -2.98 -3.31, -4.39 -4.88" stroke="#1e1e1e" stroke-width="1" fill="none"></path></g></g><mask></mask><g stroke-linecap="round"><g transform="translate(25.678048780487188 53.67426407906294) rotate(0 -2.560975609756042 -2.804878048780438)"><path d="M0 0 C-1.13 -1.24, -2.26 -2.48, -5.12 -5.61 M0 0 C-2.03 -2.23, -4.07 -4.46, -5.12 -5.61" stroke="#1e1e1e" stroke-width="1" fill="none"></path></g></g><mask></mask><g stroke-linecap="round"><g transform="translate(20.556097560975104 54.405971396136124) rotate(0 -2.195121951219562 -2.804878048780438)"><path d="M0 0 C-1.17 -1.5, -2.35 -3, -4.39 -5.61 M0 0 C-0.89 -1.14, -1.78 -2.27, -4.39 -5.61" stroke="#1e1e1e" stroke-width="1" fill="none"></path></g></g><mask></mask><g stroke-linecap="round"><g transform="translate(30.068292682926312 53.91816651808733) rotate(0 -1.219512195121979 2.073170731707364)"><path d="M0 0 C-0.84 1.43, -1.68 2.86, -2.44 4.15 M0 0 C-0.55 0.94, -1.1 1.87, -2.44 4.15" stroke="#1e1e1e" stroke-width="1" fill="none"></path></g></g><mask></mask><g stroke-linecap="round"><g transform="translate(24.946341463413773 53.91816651808733) rotate(0 -1.951219512194939 2.31707317073176)"><path d="M0 0 C-1.26 1.49, -2.52 2.99, -3.9 4.63 M0 0 C-1.15 1.37, -2.31 2.74, -3.9 4.63" stroke="#1e1e1e" stroke-width="1" fill="none"></path></g></g><mask></mask><g stroke-linecap="round"><g transform="translate(19.58048780487752 54.405971396136124) rotate(0 -1.3414634146342905 1.7073170731707705)"><path d="M-0.01 -0.28 C-1.22 1.08, -1.93 2.23, -2.87 3.67 M-0.03 0.01 C-0.43 0.59, -1.2 1.21, -2.71 3.3" stroke="#1e1e1e" stroke-width="1" fill="none"></path></g></g><mask></mask><g stroke-linecap="round"><g transform="translate(36.89756097560894 53.91816651808733) rotate(0 6.585365853658459 -1.219512195121922)"><path d="M0.13 0.03 C1.43 -0.9, 2.52 -0.86, 7.57 -3.31 M-0.16 -0.05 C2.26 -0.81, 4.69 -1.69, 7.1 -2.37 M7.64 -2.05 C9.33 -2.11, 10.88 -1.35, 12.94 0.42 M7.11 -2.67 C8.84 -1.96, 11.33 -0.86, 12.93 -0.06" stroke="#1e1e1e" stroke-width="1" fill="none"></path></g></g><mask></mask><g stroke-linecap="round" transform="translate(38.148019687989745 64.81491755904119) rotate(24.465811450124217 10.545596391541949 5.136585365853648)"><path d="M12.89 -0.27 C14.84 -0.07, 17.45 1.1, 18.95 1.93 C20.45 2.77, 22.09 3.49, 21.87 4.74 C21.65 5.99, 19.33 8.47, 17.62 9.45 C15.91 10.43, 13.88 10.56, 11.6 10.6 C9.33 10.64, 5.89 10.36, 3.97 9.71 C2.05 9.06, 0.59 7.86, 0.11 6.7 C-0.38 5.55, -0.01 3.76, 1.07 2.78 C2.14 1.81, 4.24 1.29, 6.56 0.87 C8.88 0.44, 13.38 0.32, 14.98 0.23 C16.59 0.14, 16.35 0.08, 16.19 0.3 M14 1.78 C16.24 1.99, 18.46 2.45, 19.83 2.91 C21.2 3.37, 22.41 3.44, 22.22 4.55 C22.04 5.67, 20.66 8.78, 18.73 9.61 C16.8 10.44, 13.13 9.65, 10.63 9.55 C8.13 9.44, 5.6 9.77, 3.74 8.98 C1.88 8.2, -0.06 5.68, -0.5 4.85 C-0.94 4.03, -0.36 4.57, 1.11 4.04 C2.58 3.5, 6.29 2.13, 8.32 1.63 C10.35 1.14, 12.54 1.45, 13.3 1.07 C14.05 0.7, 12.66 -0.71, 12.83 -0.61" stroke="#1e1e1e" stroke-width="1" fill="none"></path></g><g stroke-linecap="round"><g transform="translate(39.007206896284515 71.47239741000317) rotate(24.465811450124217 9.781422739980826 -0.6226164079823207)"><path d="M0 0 C6.03 -0.38, 12.05 -0.77, 19.56 -1.25 M0 0 C5.68 -0.36, 11.35 -0.72, 19.56 -1.25" stroke="#1e1e1e" stroke-width="1" fill="none"></path></g></g><mask></mask><g stroke-linecap="round"><g transform="translate(54.437967814440526 71.77737410259431) rotate(24.465811450124217 -1.677454357085253 -1.898220756043429)"><path d="M0 0 C-1.17 -1.32, -2.34 -2.64, -3.35 -3.8 M0 0 C-1.28 -1.44, -2.55 -2.89, -3.35 -3.8" stroke="#1e1e1e" stroke-width="1" fill="none"></path></g></g><mask></mask><g stroke-linecap="round"><g transform="translate(50.939767688743814 70.23892326512771) rotate(24.465811450124217 -1.9570300832658631 -2.182953869449932)"><path d="M0 0 C-1.06 -1.19, -2.13 -2.37, -3.91 -4.37 M0 0 C-0.96 -1.07, -1.92 -2.14, -3.91 -4.37" stroke="#1e1e1e" stroke-width="1" fill="none"></path></g></g><mask></mask><g stroke-linecap="round"><g transform="translate(47.11620857554226 69.25203386750366) rotate(24.465811450124217 -1.677454357085253 -2.182953869449932)"><path d="M0 0 C-0.87 -1.13, -1.73 -2.25, -3.35 -4.37 M0 0 C-0.98 -1.27, -1.95 -2.54, -3.35 -4.37" stroke="#1e1e1e" stroke-width="1" fill="none"></path></g></g><mask></mask><g stroke-linecap="round"><g transform="translate(52.2504762827848 71.88479898881474) rotate(24.465811450124217 -0.9319190872695344 1.6134876426369829)"><path d="M0 0 C-0.53 0.91, -1.06 1.83, -1.86 3.23 M0 0 C-0.43 0.74, -0.85 1.47, -1.86 3.23" stroke="#1e1e1e" stroke-width="1" fill="none"></path></g></g><mask></mask><g stroke-linecap="round"><g transform="translate(48.6594573911234 70.01517313795011) rotate(24.465811450124217 -1.4910705396309822 1.8033097182413371)"><path d="M0 0 C-0.68 0.82, -1.35 1.63, -2.98 3.61 M0 0 C-0.8 0.97, -1.6 1.94, -2.98 3.61" stroke="#1e1e1e" stroke-width="1" fill="none"></path></g></g><mask></mask><g stroke-linecap="round"><g transform="translate(44.91899769534302 68.87518960599812) rotate(24.465811450124217 -1.025110995996556 1.3287545292304799)"><path d="M-0.16 0.07 C-0.84 1.03, -1.51 1.94, -1.9 2.73 M-0.09 -0.06 C-0.54 0.85, -1.28 1.62, -2.06 2.77" stroke="#1e1e1e" stroke-width="1" fill="none"></path></g></g><mask></mask><g stroke-linecap="round"><g transform="translate(57.55402992687823 76.75724302838921) rotate(24.465811450124217 5.032363071255304 -0.9491103780217145)"><path d="M-0.18 0.08 C1.93 -0.88, 4.04 -1.22, 5.37 -2.24 M0.17 0.2 C1.18 -0.32, 2.67 -0.72, 5.44 -2.02 M5.59 -2.06 C6.93 -1.27, 8.95 -0.6, 9.66 0.09 M5.26 -1.96 C7.07 -1.4, 9.23 -0.16, 10.27 0.03" stroke="#1e1e1e" stroke-width="1" fill="none"></path></g></g><mask></mask><g stroke-linecap="round" transform="translate(34.69645190727488 21.11115730789652) rotate(233.8677362941297 9.831765915530696 4.160975609756122)"><path d="M10.02 -0.44 C11.97 -0.5, 13.8 0.02, 15.55 0.84 C17.3 1.66, 19.94 3.65, 20.53 4.47 C21.12 5.29, 20.28 5.3, 19.1 5.77 C17.93 6.24, 15.73 6.84, 13.47 7.28 C11.22 7.72, 7.51 8.48, 5.57 8.42 C3.62 8.37, 2.8 7.69, 1.81 6.94 C0.81 6.2, -0.8 5.01, -0.42 3.96 C-0.04 2.91, 1.95 1.17, 4.08 0.63 C6.21 0.09, 10.63 0.83, 12.37 0.73 C14.1 0.62, 14.56 0.17, 14.5 0 M11.76 0.36 C13.56 0.38, 16.38 0.29, 17.74 1.03 C19.09 1.77, 20.26 3.95, 19.91 4.78 C19.55 5.61, 16.92 5.17, 15.61 5.99 C14.31 6.82, 14.11 9.37, 12.08 9.72 C10.04 10.08, 5.27 8.97, 3.4 8.14 C1.53 7.31, 1.42 5.74, 0.85 4.73 C0.28 3.72, -0.77 2.65, 0.01 2.06 C0.78 1.47, 3.55 1.37, 5.5 1.17 C7.45 0.97, 10.67 0.78, 11.68 0.87 C12.7 0.95, 11.62 1.78, 11.59 1.68" stroke="#1e1e1e" stroke-width="1" fill="none"></path></g><g stroke-linecap="round"><g transform="translate(35.666030279984625 25.059499459867084) rotate(233.8677362941297 9.119319110057404 -0.504360679970489)"><path d="M0 0 C7.17 -0.4, 14.34 -0.79, 18.24 -1.01 M0 0 C4.03 -0.22, 8.07 -0.45, 18.24 -1.01" stroke="#1e1e1e" stroke-width="1" fill="none"></path></g></g><mask></mask><g stroke-linecap="round"><g transform="translate(42.92856596922957 24.881002418710636) rotate(233.8677362941297 -1.5639076217705679 -1.5376849999098567)"><path d="M0 0 C-0.95 -0.94, -1.91 -1.88, -3.13 -3.08 M0 0 C-1.24 -1.22, -2.49 -2.45, -3.13 -3.08" stroke="#1e1e1e" stroke-width="1" fill="none"></path></g></g><mask></mask><g stroke-linecap="round"><g transform="translate(45.43252126969128 28.314746218775213) rotate(233.8677362941297 -1.8245588920656246 -1.7683377498963182)"><path d="M0 0 C-1.09 -1.05, -2.17 -2.1, -3.65 -3.54 M0 0 C-1.42 -1.37, -2.83 -2.74, -3.65 -3.54" stroke="#1e1e1e" stroke-width="1" fill="none"></path></g></g><mask></mask><g stroke-linecap="round"><g transform="translate(47.542460578647024 30.779458856235806) rotate(233.8677362941297 -1.5639076217705679 -1.7683377498963182)"><path d="M0 0 C-0.8 -0.9, -1.6 -1.81, -3.13 -3.54 M0 0 C-1.1 -1.24, -2.2 -2.48, -3.13 -3.54" stroke="#1e1e1e" stroke-width="1" fill="none"></path></g></g><mask></mask><g stroke-linecap="round"><g transform="translate(44.67697696676896 20.037209794007026) rotate(233.8677362941297 -0.8688375676501892 1.3070322499233953)"><path d="M0 0 C-0.49 0.73, -0.97 1.46, -1.74 2.61 M0 0 C-0.4 0.61, -0.81 1.22, -1.74 2.61" stroke="#1e1e1e" stroke-width="1" fill="none"></path></g></g><mask></mask><g stroke-linecap="round"><g transform="translate(47.78156541762337 23.161044738953024) rotate(233.8677362941297 -1.3901401082403027 1.4608007499144264)"><path d="M0 0 C-1.09 1.15, -2.18 2.29, -2.78 2.92 M0 0 C-1 1.05, -2.01 2.11, -2.78 2.92" stroke="#1e1e1e" stroke-width="1" fill="none"></path></g></g><mask></mask><g stroke-linecap="round"><g transform="translate(49.34903426757728 26.3603663374937) rotate(233.8677362941297 -0.9557213244154354 1.0763794999369338)"><path d="M-0.13 0.07 C-0.34 0.67, -1.04 1.16, -1.84 2.1 M-0.06 -0.02 C-0.63 0.67, -1.04 1.27, -1.94 2.17" stroke="#1e1e1e" stroke-width="1" fill="none"></path></g></g><mask></mask><g stroke-linecap="round"><g transform="translate(31.504952167730607 14.976453203489427) rotate(233.8677362941297 4.691722865311476 -0.7688424999549284)"><path d="M0.22 0.28 C0.89 -0.16, 2.33 -0.85, 5.01 -1.49 M-0.15 0.08 C1.61 -0.48, 2.93 -0.96, 5.04 -1.77 M4.82 -1.45 C6.72 -1.29, 7.91 -0.4, 9.26 -0.02 M4.99 -1.61 C6.16 -1.05, 7.35 -0.73, 9.29 0.07" stroke="#1e1e1e" stroke-width="1" fill="none"></path></g></g><mask></mask></svg>