<?xml version="1.0" standalone="no"?>
<!DOCTYPE svg PUBLIC "-//W3C//DTD SVG 1.1//EN" "http://www.w3.org/Graphics/SVG/1.1/DTD/svg11.dtd">
<svg version="1.1" xmlns="http://www.w3.org/2000/svg" viewBox="0 0 106.81257592497286 64" width="106.81257592497286" height="64"><!-- svg-source:excalidraw --><metadata></metadata><defs><style class="style-fonts">
      </style></defs><g stroke-linecap="round" transform="translate(10.527509782510606 10) rotate(0 42.064531994887375 22)"><path d="M0.69 -2.12 C18.97 2.31, 41.98 1.27, 87.25 -3.08 M1.99 1.89 C28.42 0.18, 56.24 -0.9, 83.4 -1.22 M87.23 3.62 C85.63 9.09, 86.57 21.77, 80.88 41.98 M85.99 0.68 C86.16 13.06, 84.37 31.03, 84.76 42.32 M85.75 43.62 C61.25 46.79, 29.02 47.01, 0.35 45.37 M84 42.7 C63.82 46.89, 47.83 44.73, -1.47 45.02 M2.66 46.45 C3.06 30.17, -4.29 12.73, 0.27 1.62 M-1.93 42.46 C1.81 27.83, 1.35 9.33, 0.32 -1.91" stroke="#1e1e1e" stroke-width="1" fill="none"></path></g><g stroke-linecap="round"><g transform="translate(11.541112963110209 11.977528089887642) rotate(0 20.01866281684397 12.35955056179776)"><path d="M-1.54 0.94 C9.29 5.84, 16.28 10.65, 38.13 26.41 M0.7 0.1 C9.85 5.83, 19.23 10.45, 40.69 25.55" stroke="#1e1e1e" stroke-width="1" fill="none"></path></g></g><mask></mask><g stroke-linecap="round"><g transform="translate(95.16337536258516 10.494382022471882) rotate(0 -21.792468382893503 14.089887640449433)"><path d="M1.65 0.56 C-8.5 5.24, -18.33 11.81, -44.46 29.87 M1 0.02 C-11.49 6.79, -21.49 15.28, -43.96 28.63" stroke="#1e1e1e" stroke-width="1" fill="none"></path></g></g><mask></mask></svg>