<?xml version="1.0" standalone="no"?>
<!DOCTYPE svg PUBLIC "-//W3C//DTD SVG 1.1//EN" "http://www.w3.org/Graphics/SVG/1.1/DTD/svg11.dtd">
<svg version="1.1" xmlns="http://www.w3.org/2000/svg" viewBox="0 0 106.98745779546516 90.02844506324021" width="106.98745779546516" height="90.02844506324021"><!-- svg-source:excalidraw --><metadata></metadata><defs><style class="style-fonts">
      </style></defs><g stroke-linecap="round" transform="translate(10.683715543671497 37.82115711573073) rotate(0 42.64817419854376 21.103643973754743)"><path d="M0.82 -0.65 C19.07 1.76, 46.37 -0.65, 87.11 1.83 M-1.97 -0.86 C27.96 -0.58, 53.01 0.22, 85.99 -1.34 M86.02 -0.87 C82.52 13.55, 88.37 30.84, 85.39 45.61 M86.73 -1.21 C83.77 8.61, 84.04 19.91, 83.46 43.25 M85.15 44.27 C64.69 43.74, 39.12 45.2, -2.89 43.27 M86.93 43.59 C61.58 42.04, 34.51 42.7, 1.72 42.33 M-3.98 46.03 C1.59 23.89, -1.42 8.95, 3.63 -0.59 M-1.29 40.34 C-0.88 27.98, -0.47 13.81, 0.32 0.32" stroke="#1e1e1e" stroke-width="1" fill="none"></path></g><g stroke-linecap="round"><g transform="translate(11.912760082632303 37.57657503719673) rotate(0 20.296420251114114 -11.855979760536371)"><path d="M-1.91 1.16 C13.75 -7.87, 27.86 -14.79, 40.96 -24.93 M0.4 -0.37 C11.36 -6.68, 24.15 -14.26, 41.14 -23.97" stroke="#1e1e1e" stroke-width="1" fill="none"></path></g></g><mask></mask><g stroke-linecap="round"><g transform="translate(96.6952750556411 38.999292608461076) rotate(0 -22.09483723539006 -13.515816927011457)"><path d="M0.29 -0.05 C-11.37 -6.5, -24.45 -16.31, -44.38 -29 M-0.66 0.03 C-11.13 -7.79, -22.29 -14.33, -44.56 -26.85" stroke="#1e1e1e" stroke-width="1" fill="none"></path></g></g><mask></mask><g stroke-linecap="round"><g transform="translate(11.398926658552227 42.70140332376519) rotate(0 20.296420251114114 11.855979760536371)"><path d="M0.91 0.92 C14.93 7.28, 28.9 15.02, 39.74 24.5 M0.35 -0.67 C11.05 5.95, 20.79 12.62, 40.38 23.07" stroke="#1e1e1e" stroke-width="1" fill="none"></path></g></g><mask></mask><g stroke-linecap="round"><g transform="translate(96.18144163156194 41.27868575250085) rotate(0 -22.09483723539006 13.515816927011457)"><path d="M0.37 -1.22 C-13.23 6.28, -27.04 17.09, -44.94 25.71 M0.55 -0.26 C-13.66 8.07, -26.88 15.43, -44.54 27.86" stroke="#1e1e1e" stroke-width="1" fill="none"></path></g></g><mask></mask><g stroke-linecap="round"><g transform="translate(28.667885386431408 42.800668615155985) rotate(0 25.434754491902595 0.4742391904214571)"><path d="M-0.39 -3.94 C15.88 2.53, 33.69 -1.36, 50.98 2.34 M-0.75 0.36 C11.42 -0.79, 22.99 2.36, 51.32 0.99" stroke="#1e1e1e" stroke-width="1" fill="none"></path></g></g><mask></mask><g stroke-linecap="round"><g transform="translate(28.15405196235224 50.86273485232067) rotate(0 23.63633750762665 0.7113587856321715)"><path d="M-0.86 0.79 C10.55 -0.51, 22.64 1.84, 45.93 2.51 M-0.22 -0.64 C12.58 1.13, 26.11 0.72, 48.12 0.79" stroke="#1e1e1e" stroke-width="1" fill="none"></path></g></g><mask></mask><g stroke-linecap="round"><g transform="translate(37.91688701985004 57.50208351822101) rotate(0 15.15808601032586 0.4742391904214571)"><path d="M-0.75 -1.32 C6.16 0.77, 10.88 1.35, 29.79 0.2 M-0.35 0.82 C9.87 0.52, 20.13 0.17, 29.41 0.26" stroke="#1e1e1e" stroke-width="1" fill="none"></path></g></g><mask></mask></svg>