<?xml version="1.0" standalone="no"?>
<!DOCTYPE svg PUBLIC "-//W3C//DTD SVG 1.1//EN" "http://www.w3.org/Graphics/SVG/1.1/DTD/svg11.dtd">
<svg version="1.1" xmlns="http://www.w3.org/2000/svg" viewBox="0 0 91.17647058823559 71.04091826372644" width="91.17647058823559" height="71.04091826372644"><!-- svg-source:excalidraw --><metadata></metadata><defs><style class="style-fonts">
      </style></defs><g stroke-linecap="round" transform="translate(10 20.640955261517206) rotate(0 35.588235294117794 20.076055234226715)"><path d="M0 0 C24.2 -0.24, 49.6 2.57, 71.18 0 M0 0 C21.71 -1.03, 41.04 -0.13, 71.18 0 M71.18 0 C69.58 14.75, 72.26 31.68, 71.18 40.15 M71.18 0 C70.97 13.66, 70.45 27.38, 71.18 40.15 M71.18 40.15 C53.39 40.01, 33.02 40.87, 0 40.15 M71.18 40.15 C42.85 39.4, 16.78 40.91, 0 40.15 M0 40.15 C0.15 26.73, -1.65 10.2, 0 0 M0 40.15 C-0.99 24.83, 0.02 7.96, 0 0" stroke="#1e1e1e" stroke-width="2" fill="none"></path></g><g stroke-linecap="round" transform="translate(38.81464368224624 30.802909145508465) rotate(0 12.579527279189733 11.401216552770734)"><path d="M11.06 0.08 C13.68 -0.52, 17.27 -0.06, 19.51 1.22 C21.75 2.5, 23.68 5.34, 24.52 7.74 C25.36 10.15, 25.57 13.35, 24.53 15.67 C23.5 17.99, 20.75 20.56, 18.29 21.65 C15.83 22.74, 12.33 22.73, 9.77 22.21 C7.2 21.7, 4.57 20.37, 2.89 18.59 C1.21 16.8, -0.44 13.95, -0.33 11.49 C-0.22 9.02, 1.64 5.64, 3.55 3.79 C5.46 1.93, 9.85 1, 11.13 0.38 C12.42 -0.25, 11.21 -0.05, 11.24 0.02 M13.24 -0.69 C15.95 -0.75, 20.03 1.3, 22.04 3.13 C24.05 4.96, 25.13 7.69, 25.3 10.27 C25.47 12.85, 24.68 16.71, 23.06 18.6 C21.45 20.5, 18.33 21.06, 15.64 21.65 C12.95 22.25, 9.43 23.02, 6.94 22.2 C4.46 21.38, 1.72 18.97, 0.74 16.71 C-0.24 14.45, 0.24 10.98, 1.07 8.66 C1.89 6.33, 3.49 4.16, 5.69 2.76 C7.89 1.36, 12.99 0.65, 14.25 0.25 C15.51 -0.15, 13.33 0.17, 13.27 0.36" stroke="#1e1e1e" stroke-width="2" fill="none"></path></g><g stroke-linecap="round"><g transform="translate(31.933534743202472 20.39310272776129) rotate(0 18.385462946507914 -4.709198141361867)"><path d="M0 0 C1.7 -2.45, 2.66 -4.36, 7.1 -9.91 M0 0 C1.89 -3.22, 4.23 -5.83, 7.1 -9.91 M7.1 -9.91 C16.11 -10.32, 24.72 -10.75, 31.83 -9.91 M7.1 -9.91 C15.36 -9.88, 23.14 -10.1, 31.83 -9.91 M31.83 -9.91 C33.84 -6.43, 35.58 -1.99, 36.77 0.5 M31.83 -9.91 C33.32 -6.9, 34.42 -4.17, 36.77 0.5" stroke="#1e1e1e" stroke-width="2" fill="none"></path></g></g><mask></mask><g stroke-linecap="round" transform="translate(11.935311889106288 15.436052052643504) rotate(0 5.698418340145736 1.2392626687794177)"><path d="M5.37 -0.01 C6.49 0.09, 8.45 0.47, 9.4 0.6 C10.35 0.72, 10.88 0.48, 11.06 0.73 C11.24 0.98, 10.94 1.85, 10.46 2.12 C9.98 2.4, 9.31 2.38, 8.16 2.37 C7 2.36, 4.78 2.14, 3.53 2.06 C2.29 1.98, 1.25 2.13, 0.68 1.89 C0.11 1.65, -0.04 0.95, 0.11 0.62 C0.26 0.3, 0.63 0.01, 1.58 -0.05 C2.53 -0.11, 5.11 0.21, 5.8 0.26 C6.48 0.31, 5.69 0.27, 5.69 0.24 M6.44 0.52 C7.72 0.66, 9.3 0.41, 10.18 0.51 C11.05 0.6, 11.8 0.78, 11.69 1.07 C11.58 1.35, 10.26 2.08, 9.49 2.22 C8.73 2.36, 8.32 2.03, 7.11 1.92 C5.9 1.81, 3.26 1.49, 2.22 1.56 C1.18 1.64, 1.23 2.61, 0.88 2.37 C0.53 2.13, -0.12 0.38, 0.14 0.13 C0.4 -0.11, 1.37 0.82, 2.44 0.89 C3.5 0.96, 5.92 0.68, 6.55 0.55 C7.18 0.41, 6.3 0.21, 6.22 0.09" stroke="#1e1e1e" stroke-width="2" fill="none"></path></g><g stroke-linecap="round" transform="translate(12.150346543451178 17.418872322690618) rotate(0 5.375866358628173 1.2392626687794177)"><path d="M0 0 C2.86 -0.31, 6.11 0.4, 10.75 0 M0 0 C2.95 -0.2, 5.35 0.17, 10.75 0 M10.75 0 C10.64 0.7, 10.88 1.51, 10.75 2.48 M10.75 0 C10.77 0.76, 10.77 1.34, 10.75 2.48 M10.75 2.48 C8.26 2.59, 5.01 2.94, 0 2.48 M10.75 2.48 C7.26 2.26, 3.64 2.67, 0 2.48 M0 2.48 C0.08 1.79, -0.03 0.95, 0 0 M0 2.48 C0.04 1.92, -0.02 1.49, 0 0" stroke="#1e1e1e" stroke-width="2" fill="none"></path></g><g stroke-linecap="round"><g transform="translate(32.57863870623805 21.63236539654065) rotate(0 -0.21503465434511781 19.704276433592895)"><path d="M0 0 C0.3 11.73, 0.63 21.95, -0.43 39.41 M0 0 C-0.36 11.2, -0.4 22.99, -0.43 39.41" stroke="#1e1e1e" stroke-width="2" fill="none"></path></g></g><mask></mask></svg>