<?xml version="1.0" standalone="no"?>
<!DOCTYPE svg PUBLIC "-//W3C//DTD SVG 1.1//EN" "http://www.w3.org/Graphics/SVG/1.1/DTD/svg11.dtd">
<svg version="1.1" xmlns="http://www.w3.org/2000/svg" viewBox="0 0 120.93131061666827 137.79530578601975" width="120.93131061666827" height="137.79530578601975"><!-- svg-source:excalidraw --><metadata></metadata><defs><style class="style-fonts">
      </style></defs><g stroke-linecap="round"><g transform="translate(11.519545910785837 125.2941176470589) rotate(0 45.29411764705878 -5.294117647058783)"><path d="M0 0 C19.17 2.2, 38.11 2.83, 90.59 2.35 M0 0 C26.45 0.43, 52.17 1.35, 90.59 2.35 M90.59 2.35 C87.27 -3.75, 86.12 -9.11, 82.35 -12.35 M90.59 2.35 C87.79 -3.28, 84.29 -7.73, 82.35 -12.35 M82.35 -12.35 C61.89 -10.48, 43.86 -10.61, 12.35 -12.94 M82.35 -12.35 C63.92 -13.94, 44.84 -12.62, 12.35 -12.94 M12.35 -12.94 C7.32 -6.86, 4.05 -2.5, 0 0 M12.35 -12.94 C9.07 -9.18, 6.22 -6.24, 0 0" stroke="#1e1e1e" stroke-width="2" fill="none"></path></g></g><mask></mask><g stroke-linecap="round"><g transform="translate(56.81366355784485 114.11764705882365) rotate(0 12.941176470588061 -52.058823529411825)"><path d="M0 0 C-0.33 -12.54, 1.4 -29.57, 3.53 -48.82 M0 0 C1.53 -16.27, 2.03 -34.12, 3.53 -48.82 M3.53 -48.82 C19.03 -47.6, 29.55 -49.95, 54.12 -48.24 M3.53 -48.82 C22.73 -48.21, 40.44 -49.08, 54.12 -48.24 M54.12 -48.24 C46.59 -67.89, 39.86 -88.74, 37.06 -101.76 M54.12 -48.24 C47.15 -69.28, 40.73 -87.76, 37.06 -101.76 M37.06 -101.76 C20.15 -101.52, 7.41 -103.4, -28.24 -104.12 M37.06 -101.76 C15.38 -102.64, -7.44 -103.06, -28.24 -104.12" stroke="#1e1e1e" stroke-width="2" fill="none"></path></g></g><mask></mask><g stroke-linecap="round"><g transform="translate(11.519545910785837 65.5882352941178) rotate(0.7472665781387704 24.11764705882365 -27.058823529411825)"><path d="M0 0 C15.98 -1.13, 28.54 0.15, 49.41 -1.18 M0 0 C12.96 0.46, 26.85 0.14, 49.41 -1.18 M49.41 -1.18 C38.49 -1.19, 28.36 -0.19, -1.18 -0.59 M49.41 -1.18 C30.93 -1.33, 13.79 -1.9, -1.18 -0.59 M-1.18 -0.59 C2.68 -12.32, 6.68 -26.84, 15.88 -54.12 M-1.18 -0.59 C3.4 -14.8, 7.38 -31.19, 15.88 -54.12 M15.88 -54.12 C16.07 -54.04, 16.24 -53.76, 16.47 -53.53 M15.88 -54.12 C16.06 -54, 16.19 -53.83, 16.47 -53.53" stroke="#1e1e1e" stroke-width="2" fill="none"></path></g></g><mask></mask></svg>