<?xml version="1.0" standalone="no"?>
<!DOCTYPE svg PUBLIC "-//W3C//DTD SVG 1.1//EN" "http://www.w3.org/Graphics/SVG/1.1/DTD/svg11.dtd">
<svg version="1.1" xmlns="http://www.w3.org/2000/svg" viewBox="0 0 120.93131061666827 137.79530578601975" width="120.93131061666827" height="137.79530578601975"><!-- svg-source:excalidraw --><metadata></metadata><defs><style class="style-fonts">
      </style></defs><g stroke-linecap="round"><g transform="translate(11.519545910785837 125.2941176470589) rotate(0 45.29411764705878 -5.294117647058783)"><path d="M0 0 C19.17 2.2, 38.11 2.83, 90.59 2.35 M0 0 C26.45 0.43, 52.17 1.35, 90.59 2.35 M90.59 2.35 C87.27 -3.75, 86.12 -9.11, 82.35 -12.35 M90.59 2.35 C87.79 -3.28, 84.29 -7.73, 82.35 -12.35 M82.35 -12.35 C61.89 -10.48, 43.86 -10.61, 12.35 -12.94 M82.35 -12.35 C63.92 -13.94, 44.84 -12.62, 12.35 -12.94 M12.35 -12.94 C7.32 -6.86, 4.05 -2.5, 0 0 M12.35 -12.94 C9.07 -9.18, 6.22 -6.24, 0 0" stroke="#1e1e1e" stroke-width="2" fill="none"></path></g></g><mask></mask><g stroke-linecap="round"><g transform="translate(56.81366355784485 114.11764705882365) rotate(0 12.941176470588061 -52.058823529411825)"><path d="M0 0 C-0.33 -12.54, 1.4 -29.57, 3.53 -48.82 M0 0 C1.53 -16.27, 2.03 -34.12, 3.53 -48.82 M3.53 -48.82 C19.03 -47.6, 29.55 -49.95, 54.12 -48.24 M3.53 -48.82 C22.73 -48.21, 40.44 -49.08, 54.12 -48.24 M54.12 -48.24 C46.59 -67.89, 39.86 -88.74, 37.06 -101.76 M54.12 -48.24 C47.15 -69.28, 40.73 -87.76, 37.06 -101.76 M37.06 -101.76 C20.15 -101.52, 7.41 -103.4, -28.24 -104.12 M37.06 -101.76 C15.38 -102.64, -7.44 -103.06, -28.24 -104.12" stroke="#1e1e1e" stroke-width="2" fill="none"></path></g></g><mask></mask><g stroke-linecap="round"><g transform="translate(11.519545910785837 65.5882352941178) rotate(0.7472665781387704 24.11764705882365 -27.058823529411825)"><path d="M0 0 C15.98 -1.13, 28.54 0.15, 49.41 -1.18 M0 0 C12.96 0.46, 26.85 0.14, 49.41 -1.18 M49.41 -1.18 C38.49 -1.19, 28.36 -0.19, -1.18 -0.59 M49.41 -1.18 C30.93 -1.33, 13.79 -1.9, -1.18 -0.59 M-1.18 -0.59 C2.68 -12.32, 6.68 -26.84, 15.88 -54.12 M-1.18 -0.59 C3.4 -14.8, 7.38 -31.19, 15.88 -54.12 M15.88 -54.12 C16.07 -54.04, 16.24 -53.76, 16.47 -53.53 M15.88 -54.12 C16.06 -54, 16.19 -53.83, 16.47 -53.53" stroke="#1e1e1e" stroke-width="2" fill="none"></path></g></g><mask></mask><g transform="translate(33.0191279085866 33.76296431427818) rotate(0 21.296296296296532 7.314814814814781)" stroke="none"><path fill="#1e1e1e" d="M 1.26,-9.24 Q 1.26,-9.24 2.45,-9.23 3.64,-9.21 7.97,-9.64 12.31,-10.06 16.66,-9.82 21.01,-9.58 25.65,-8.38 30.29,-7.18 34.89,-7.96 39.49,-8.74 43.00,-6.33 46.52,-3.92 48.79,7.21 51.06,18.36 47.20,20.70 43.34,23.03 38.93,23.40 34.52,23.76 29.55,25.54 24.58,27.32 20.29,27.91 16.00,28.49 11.66,28.98 7.32,29.46 3.29,29.52 -0.74,29.58 -3.12,29.19 -5.51,28.80 -7.65,27.67 -9.79,26.53 -11.45,24.77 -13.12,23.02 -14.13,20.82 -15.15,18.63 -15.41,16.22 -15.67,13.81 -15.15,11.45 -14.63,9.09 -13.38,7.01 -12.13,4.94 -10.29,3.37 -8.45,1.81 -6.20,0.91 -3.95,0.02 -1.53,-0.10 0.87,-0.23 3.20,0.40 5.54,1.05 7.54,2.41 9.54,3.77 11.01,5.69 12.47,7.62 13.24,9.91 14.01,12.21 14.01,14.63 14.01,17.05 13.24,19.34 12.47,21.63 11.00,23.56 9.54,25.49 7.54,26.84 5.53,28.20 3.20,28.85 0.87,29.49 -1.54,29.36 -3.95,29.23 -6.20,28.34 -8.45,27.44 -10.29,25.87 -12.14,24.31 -13.38,22.23 -14.63,20.16 -15.15,17.79 -15.67,15.43 -15.41,13.03 -15.15,10.62 -14.13,8.42 -13.11,6.23 -11.45,4.47 -9.78,2.71 -7.65,1.58 -5.51,0.45 -3.12,0.06 -0.73,-0.32 -0.73,-0.32 -0.74,-0.32 2.41,0.36 5.56,1.05 11.84,0.34 18.13,-0.35 22.49,-1.62 26.86,-2.89 31.17,-1.68 35.48,-0.47 35.00,8.99 34.51,18.45 30.64,16.58 26.76,14.71 22.53,13.97 18.31,13.23 13.90,12.28 9.49,11.32 5.26,10.59 1.04,9.85 -0.10,9.55 -1.26,9.24 -2.34,8.96 -3.43,8.67 -4.42,8.13 -5.41,7.60 -6.24,6.84 -7.07,6.08 -7.69,5.14 -8.32,4.21 -8.70,3.15 -9.09,2.09 -9.21,0.98 -9.32,-0.13 -9.17,-1.25 -9.02,-2.36 -8.61,-3.41 -8.19,-4.45 -7.54,-5.37 -6.89,-6.29 -6.03,-7.02 -5.18,-7.75 -4.18,-8.26 -3.17,-8.77 -2.08,-9.02 -0.98,-9.27 0.13,-9.26 1.26,-9.24 1.26,-9.24 L 1.26,-9.24 Z"></path></g><g transform="translate(41.5376464271053 35.614816166130026) rotate(0 15.462962962963047 2.685185185185105)" stroke="none"><path fill="#1e1e1e" d="M -1.63,1.86 Q -1.63,1.86 -2.08,1.52 -2.54,1.19 -3.55,0.13 -4.55,-0.92 -4.81,-1.97 -5.07,-3.03 -5.31,-4.30 -5.55,-5.56 -5.79,-6.66 -6.03,-7.76 -6.70,-8.80 -7.37,-9.84 -7.44,-10.93 -7.51,-12.02 -8.67,-13.33 -9.84,-14.64 -8.95,-13.73 -8.07,-12.82 -9.06,-13.68 -10.06,-14.54 -10.94,-15.37 -11.83,-16.19 -12.19,-17.35 -12.55,-18.51 -11.34,-17.93 -10.12,-17.35 -9.06,-18.11 -8.00,-18.86 -7.26,-19.82 -6.52,-20.78 -6.37,-19.63 -6.21,-18.49 -6.68,-16.96 -7.15,-15.42 -7.83,-13.75 -8.51,-12.08 -9.20,-10.96 -9.88,-9.84 -9.07,-10.93 -8.26,-12.02 -8.69,-10.91 -9.11,-9.80 -9.32,-8.69 -9.53,-7.58 -9.90,-6.51 -10.28,-5.45 -11.21,-4.25 -12.15,-3.05 -12.54,-1.29 -12.93,0.45 -13.50,1.48 -14.06,2.51 -14.08,3.86 -14.10,5.21 -14.76,6.14 -15.43,7.07 -15.75,8.45 -16.06,9.84 -16.93,10.63 -17.80,11.42 -17.05,10.34 -16.30,9.27 -16.54,10.46 -16.78,11.65 -17.33,12.95 -17.88,14.26 -18.02,15.57 -18.15,16.87 -18.39,17.97 -18.63,19.07 -19.56,20.69 -20.49,22.31 -21.09,23.47 -21.69,24.63 -22.14,25.98 -22.58,27.32 -23.42,28.26 -24.26,29.20 -24.37,29.24 -24.48,29.28 -24.90,29.50 -25.32,29.71 -25.77,29.82 -26.23,29.93 -26.71,29.92 -27.18,29.92 -27.63,29.80 -28.09,29.68 -28.51,29.46 -28.92,29.24 -29.27,28.92 -29.62,28.61 -29.89,28.22 -30.15,27.82 -30.31,27.38 -30.48,26.94 -30.53,26.47 -30.58,26.00 -30.52,25.53 -30.46,25.07 -30.29,24.63 -30.12,24.19 -29.84,23.80 -29.57,23.42 -29.22,23.11 -28.86,22.80 -27.08,22.59 -25.29,22.38 -24.19,22.19 -23.08,22.01 -24.26,22.62 -25.45,23.23 -24.57,22.63 -23.69,22.03 -22.49,21.92 -21.29,21.82 -20.16,21.81 -19.04,21.81 -17.80,21.81 -16.56,21.81 -15.43,21.81 -14.31,21.81 -13.17,21.81 -12.04,21.81 -10.91,21.81 -9.79,21.81 -7.78,22.56 -5.78,23.31 -6.77,22.75 -7.75,22.18 -6.63,22.18 -5.52,22.18 -4.28,22.19 -3.04,22.19 -1.69,22.12 -0.35,22.06 0.75,22.03 1.85,22.01 3.01,22.02 4.16,22.02 5.36,22.02 6.56,22.02 7.99,22.10 9.41,22.18 10.81,22.20 12.21,22.22 13.43,22.16 14.64,22.09 15.85,21.98 17.06,21.88 18.28,21.86 19.49,21.85 20.61,21.86 21.72,21.86 23.64,22.06 25.56,22.26 26.66,22.43 27.77,22.59 28.96,22.60 30.15,22.60 31.25,22.60 32.36,22.61 33.66,22.33 34.96,22.06 36.13,21.97 37.30,21.88 38.42,21.56 39.54,21.24 40.63,21.12 41.72,21.00 43.12,20.64 44.52,20.28 45.64,20.24 46.75,20.21 47.83,20.12 48.91,20.04 50.07,20.03 51.23,20.02 52.31,20.02 53.38,20.02 54.48,20.02 55.58,20.02 54.80,21.63 54.01,23.23 54.27,24.27 54.52,25.32 53.29,24.49 52.05,23.66 51.36,22.67 50.66,21.68 49.61,20.30 48.57,18.92 47.60,17.99 46.63,17.05 45.77,16.18 44.91,15.31 44.15,14.48 43.40,13.64 42.50,12.61 41.60,11.59 40.42,11.99 39.25,12.40 39.36,11.24 39.48,10.09 40.57,10.76 41.66,11.44 42.79,11.97 43.92,12.50 44.99,12.71 46.06,12.91 47.06,13.02 48.06,13.13 48.50,13.23 48.93,13.33 49.33,13.53 49.73,13.73 50.07,14.02 50.42,14.31 50.68,14.67 50.94,15.04 51.11,15.45 51.27,15.87 51.34,16.31 51.40,16.76 51.35,17.20 51.31,17.65 51.16,18.07 51.01,18.49 50.76,18.86 50.51,19.24 50.18,19.54 49.86,19.85 49.46,20.06 49.07,20.28 48.64,20.39 48.20,20.51 47.76,20.52 47.31,20.53 46.14,21.20 44.98,21.88 43.77,22.74 42.57,23.60 40.96,24.49 39.35,25.38 38.15,25.57 36.95,25.76 35.31,25.49 33.67,25.21 32.84,24.49 32.01,23.76 33.09,24.41 34.17,25.07 32.86,24.81 31.54,24.55 29.91,24.08 28.28,23.61 27.19,23.25 26.10,22.90 25.07,22.49 24.04,22.09 22.45,21.48 20.85,20.88 19.12,19.94 17.39,19.00 16.27,17.98 15.14,16.96 13.99,16.11 12.84,15.27 11.36,14.24 9.88,13.20 8.96,12.32 8.03,11.44 6.93,10.29 5.83,9.14 4.82,8.23 3.82,7.31 2.60,6.40 1.38,5.50 0.09,4.30 -1.19,3.09 -2.32,1.89 -3.45,0.68 -4.67,-0.27 -5.89,-1.22 -7.15,-2.27 -8.41,-3.32 -8.88,-4.32 -9.34,-5.32 -10.08,-6.10 -10.81,-6.89 -11.40,-8.22 -11.99,-9.55 -11.08,-8.59 -10.17,-7.63 -11.24,-8.31 -12.30,-8.99 -13.47,-9.75 -14.64,-10.50 -14.41,-10.33 -14.18,-10.15 -14.58,-10.38 -14.98,-10.62 -15.31,-10.94 -15.65,-11.26 -15.89,-11.66 -16.14,-12.05 -16.28,-12.49 -16.43,-12.93 -16.46,-13.40 -16.50,-13.86 -16.42,-14.32 -16.34,-14.77 -16.16,-15.20 -15.97,-15.63 -15.69,-16.00 -15.41,-16.36 -15.05,-16.66 -14.69,-16.95 -14.27,-17.14 -13.84,-17.34 -13.39,-17.43 -12.93,-17.52 -12.47,-17.50 -12.01,-17.48 -11.56,-17.34 -11.12,-17.21 -10.12,-16.33 -9.13,-15.45 -8.59,-14.46 -8.04,-13.46 -7.57,-12.27 -7.09,-11.08 -6.78,-9.55 -6.46,-8.01 -6.77,-6.86 -7.09,-5.70 -7.83,-4.91 -8.57,-4.12 -9.63,-3.85 -10.70,-3.57 -11.84,-3.56 -12.98,-3.54 -14.81,-4.17 -16.65,-4.79 -15.87,-4.44 -15.09,-4.08 -15.56,-4.14 -16.02,-4.20 -16.46,-4.37 -16.89,-4.54 -17.27,-4.81 -17.66,-5.09 -17.96,-5.44 -18.27,-5.79 -18.48,-6.21 -18.69,-6.63 -18.80,-7.08 -18.90,-7.54 -18.90,-8.01 -18.89,-8.48 -18.77,-8.93 -18.66,-9.38 -18.43,-9.79 -18.21,-10.20 -17.89,-10.55 -17.58,-10.90 -17.19,-11.16 -16.80,-11.42 -16.36,-11.58 -15.92,-11.74 -15.46,-11.79 -14.99,-11.84 -13.62,-10.89 -12.25,-9.94 -11.60,-8.22 -10.95,-6.50 -11.29,-5.35 -11.64,-4.20 -12.60,-2.79 -13.55,-1.38 -12.89,-3.14 -12.22,-4.89 -12.13,-3.78 -12.03,-2.66 -12.47,-0.92 -12.90,0.82 -13.47,1.75 -14.03,2.68 -15.35,4.08 -16.67,5.48 -16.56,6.58 -16.45,7.69 -16.91,9.12 -17.38,10.55 -17.34,9.41 -17.30,8.27 -17.91,7.36 -18.51,6.44 -19.85,6.49 -21.18,6.54 -20.43,5.72 -19.67,4.91 -18.68,3.74 -17.70,2.58 -16.94,1.79 -16.19,0.99 -16.46,2.83 -16.74,4.68 -17.55,3.27 -18.36,1.86 -18.41,0.80 -18.46,-0.26 -18.47,-1.48 -18.47,-2.70 -18.09,-4.25 -17.70,-5.80 -17.69,-7.36 -17.68,-8.91 -17.30,-10.58 -16.91,-12.25 -16.59,-13.45 -16.27,-14.65 -15.53,-16.19 -14.79,-17.74 -15.37,-16.80 -15.95,-15.86 -15.44,-17.93 -14.92,-20.00 -14.31,-21.29 -13.70,-22.58 -13.29,-23.06 -12.88,-23.54 -12.34,-23.86 -11.79,-24.19 -11.18,-24.32 -10.56,-24.45 -9.93,-24.38 -9.30,-24.31 -8.73,-24.04 -8.16,-23.77 -7.70,-23.34 -7.24,-22.90 -6.95,-22.34 -6.66,-21.78 -6.56,-21.16 -6.46,-20.53 -6.56,-19.91 -6.67,-19.29 -6.97,-18.73 -7.27,-18.17 -7.73,-17.74 -8.19,-17.31 -8.76,-17.04 -9.34,-16.78 -9.97,-16.71 -10.60,-16.65 -11.21,-16.79 -11.83,-16.93 -12.37,-17.26 -12.91,-17.58 -13.32,-18.07 -13.72,-18.55 -13.95,-19.14 -14.19,-19.73 -14.22,-20.36 -14.25,-20.99 -14.08,-21.60 -13.90,-22.21 -13.55,-22.73 -13.19,-23.25 -12.68,-23.63 -12.18,-24.01 -11.58,-24.21 -10.98,-24.41 -10.35,-24.41 -9.71,-24.40 -9.12,-24.20 -8.52,-23.99 -8.02,-23.61 -7.51,-23.22 -7.16,-22.70 -6.81,-22.17 -6.64,-21.56 -6.48,-20.95 -6.52,-20.32 -6.55,-19.69 -6.79,-19.11 -7.03,-18.52 -7.03,-18.52 -7.03,-18.52 -8.36,-16.52 -9.69,-14.51 -8.91,-15.39 -8.14,-16.26 -8.44,-15.04 -8.75,-13.82 -8.96,-12.74 -9.18,-11.66 -9.60,-10.58 -10.02,-9.51 -10.12,-8.45 -10.22,-7.39 -10.31,-6.20 -10.40,-5.02 -10.59,-3.86 -10.78,-2.70 -11.10,-1.60 -11.42,-0.50 -10.61,0.49 -9.81,1.49 -9.77,2.61 -9.73,3.74 -10.52,5.25 -11.32,6.77 -12.28,8.01 -13.24,9.25 -13.99,10.13 -14.74,11.00 -15.60,11.86 -16.47,12.73 -18.81,13.25 -21.15,13.77 -22.17,13.03 -23.19,12.30 -23.91,10.70 -24.63,9.10 -24.35,7.87 -24.07,6.63 -23.72,5.24 -23.37,3.85 -23.07,2.73 -22.76,1.60 -21.86,0.46 -20.96,-0.68 -20.34,-1.80 -19.73,-2.92 -18.94,-4.68 -18.15,-6.43 -17.20,-5.30 -16.25,-4.17 -17.02,-4.97 -17.78,-5.76 -16.44,-4.92 -15.09,-4.08 -15.56,-4.14 -16.02,-4.20 -16.46,-4.37 -16.89,-4.54 -17.27,-4.81 -17.66,-5.09 -17.96,-5.44 -18.27,-5.79 -18.48,-6.21 -18.69,-6.63 -18.80,-7.08 -18.90,-7.54 -18.90,-8.01 -18.89,-8.47 -18.77,-8.93 -18.66,-9.38 -18.43,-9.79 -18.21,-10.20 -17.89,-10.55 -17.58,-10.90 -17.19,-11.16 -16.80,-11.42 -16.36,-11.58 -15.92,-11.74 -15.46,-11.79 -14.99,-11.84 -14.78,-11.83 -14.56,-11.83 -13.38,-11.53 -12.20,-11.22 -11.28,-10.07 -10.37,-8.92 -11.35,-9.86 -12.33,-10.80 -13.27,-9.41 -14.21,-8.01 -14.20,-9.08 -14.18,-10.15 -14.58,-10.38 -14.98,-10.62 -15.31,-10.94 -15.65,-11.26 -15.89,-11.66 -16.14,-12.05 -16.28,-12.49 -16.43,-12.93 -16.46,-13.40 -16.50,-13.86 -16.42,-14.32 -16.34,-14.77 -16.16,-15.20 -15.97,-15.63 -15.69,-15.99 -15.41,-16.36 -15.05,-16.66 -14.69,-16.95 -14.27,-17.14 -13.85,-17.34 -13.39,-17.43 -12.93,-17.52 -12.47,-17.50 -12.01,-17.48 -11.56,-17.34 -11.12,-17.21 -10.78,-16.84 -10.44,-16.46 -9.28,-15.65 -8.13,-14.84 -6.79,-13.96 -5.44,-13.09 -4.89,-11.79 -4.34,-10.49 -3.80,-9.49 -3.26,-8.49 -2.12,-7.55 -0.99,-6.62 0.18,-5.79 1.36,-4.96 2.25,-4.12 3.13,-3.29 4.12,-2.06 5.12,-0.83 6.07,-0.17 7.01,0.48 7.96,1.27 8.91,2.06 9.96,3.04 11.02,4.01 11.94,4.99 12.86,5.96 13.65,6.70 14.44,7.43 15.32,8.12 16.20,8.81 17.41,9.77 18.61,10.73 19.51,11.46 20.41,12.18 21.50,13.16 22.59,14.13 23.68,14.62 24.76,15.10 26.42,15.62 28.07,16.14 30.09,16.59 32.10,17.05 33.60,17.31 35.10,17.56 36.63,18.50 38.17,19.44 37.11,18.86 36.05,18.27 37.15,17.89 38.24,17.51 39.47,16.66 40.71,15.82 41.66,15.33 42.61,14.85 43.78,14.26 44.95,13.67 46.50,13.40 48.06,13.13 48.50,13.23 48.93,13.33 49.33,13.53 49.73,13.73 50.07,14.02 50.42,14.31 50.68,14.67 50.94,15.04 51.11,15.45 51.27,15.87 51.34,16.31 51.40,16.76 51.35,17.20 51.31,17.65 51.16,18.07 51.01,18.49 50.76,18.86 50.51,19.24 50.18,19.54 49.86,19.85 49.46,20.06 49.07,20.28 48.64,20.39 48.21,20.51 47.76,20.52 47.31,20.53 46.62,20.42 45.94,20.31 44.83,20.09 43.72,19.87 42.02,19.51 40.32,19.15 38.93,18.43 37.54,17.70 36.53,16.88 35.53,16.07 34.66,15.28 33.79,14.49 33.15,13.52 32.52,12.54 32.75,10.46 32.98,8.38 33.97,7.36 34.96,6.34 36.27,5.54 37.57,4.74 39.64,4.09 41.71,3.44 42.91,3.73 44.10,4.02 45.20,4.80 46.30,5.57 47.31,6.62 48.33,7.66 49.01,8.53 49.68,9.39 50.87,10.52 52.05,11.64 53.07,12.64 54.08,13.63 54.88,14.56 55.68,15.48 56.31,16.67 56.94,17.86 58.18,18.59 59.43,19.33 60.18,20.45 60.94,21.58 60.98,23.06 61.03,24.54 58.30,26.14 55.58,27.75 54.48,27.75 53.38,27.75 52.31,27.75 51.23,27.75 49.95,27.74 48.67,27.73 47.34,27.83 46.02,27.94 44.95,28.06 43.87,28.19 42.76,28.42 41.65,28.66 40.56,28.92 39.47,29.18 38.27,29.40 37.08,29.61 35.97,29.88 34.87,30.14 33.46,30.24 32.04,30.34 30.83,30.35 29.61,30.35 28.44,30.35 27.27,30.34 26.15,30.23 25.03,30.11 23.71,29.86 22.39,29.61 21.24,29.62 20.10,29.62 18.87,29.62 17.64,29.62 16.52,29.71 15.40,29.80 13.80,29.90 12.20,29.99 10.97,29.98 9.74,29.98 8.68,29.90 7.62,29.82 6.49,29.82 5.37,29.82 4.23,29.82 3.08,29.82 1.83,29.83 0.57,29.84 -0.58,29.93 -1.74,30.02 -2.91,30.02 -4.07,30.03 -5.18,30.03 -6.29,30.03 -7.36,30.02 -8.44,30.00 -9.52,29.83 -10.60,29.66 -11.79,29.66 -12.97,29.66 -14.05,29.66 -15.14,29.67 -16.21,29.66 -17.28,29.66 -18.39,29.66 -19.50,29.66 -20.68,29.67 -21.86,29.67 -20.85,29.04 -19.85,28.40 -20.86,28.99 -21.88,29.57 -23.70,29.79 -25.52,30.02 -26.67,29.90 -27.82,29.78 -26.15,29.53 -24.48,29.28 -24.90,29.50 -25.32,29.71 -25.77,29.82 -26.23,29.93 -26.71,29.92 -27.18,29.92 -27.63,29.80 -28.09,29.68 -28.51,29.46 -28.92,29.24 -29.27,28.92 -29.62,28.61 -29.89,28.22 -30.15,27.83 -30.31,27.38 -30.48,26.94 -30.53,26.47 -30.58,26.00 -30.52,25.53 -30.46,25.07 -30.29,24.63 -30.12,24.19 -29.85,23.80 -29.57,23.42 -29.22,23.11 -28.86,22.80 -29.06,23.08 -29.25,23.37 -28.93,22.16 -28.60,20.95 -27.83,19.88 -27.06,18.80 -26.49,17.80 -25.92,16.80 -25.63,15.65 -25.35,14.49 -25.21,13.38 -25.08,12.27 -24.67,11.08 -24.26,9.89 -24.10,8.74 -23.94,7.59 -23.28,6.54 -22.62,5.49 -21.59,4.80 -20.55,4.12 -21.57,4.82 -22.58,5.52 -22.02,4.41 -21.47,3.29 -21.36,2.18 -21.26,1.07 -20.88,-0.25 -20.50,-1.58 -19.91,-2.56 -19.31,-3.55 -18.66,-4.48 -18.01,-5.41 -18.63,-4.15 -19.24,-2.89 -19.02,-4.06 -18.81,-5.24 -18.53,-6.37 -18.26,-7.49 -17.15,-8.61 -16.03,-9.73 -16.74,-8.88 -17.44,-8.03 -17.00,-9.49 -16.57,-10.95 -16.25,-12.10 -15.93,-13.25 -15.46,-14.23 -15.00,-15.22 -14.75,-16.27 -14.49,-17.31 -14.22,-18.54 -13.94,-19.76 -13.19,-21.55 -12.44,-23.34 -10.95,-24.08 -9.46,-24.82 -8.02,-24.16 -6.57,-23.51 -6.00,-21.68 -5.43,-19.85 -6.37,-20.55 -7.31,-21.25 -6.48,-20.45 -5.65,-19.64 -4.89,-18.86 -4.12,-18.07 -3.01,-16.89 -1.90,-15.71 -1.42,-14.65 -0.94,-13.58 -0.99,-12.46 -1.04,-11.35 -0.44,-10.38 0.15,-9.42 0.36,-8.36 0.56,-7.31 0.66,-6.25 0.76,-5.19 0.80,-3.93 0.84,-2.68 1.23,-2.27 1.63,-1.86 1.83,-1.64 2.02,-1.41 2.17,-1.15 2.31,-0.89 2.38,-0.60 2.45,-0.31 2.45,-0.01 2.46,0.28 2.39,0.57 2.32,0.86 2.18,1.12 2.04,1.39 1.85,1.61 1.65,1.84 1.40,2.01 1.16,2.18 0.88,2.29 0.60,2.40 0.31,2.43 0.01,2.47 -0.28,2.44 -0.57,2.40 -0.85,2.30 -1.13,2.20 -1.38,2.03 -1.63,1.86 -1.63,1.86 L -1.63,1.86 Z"></path></g><g transform="translate(33.94505383451269 13.207408758722636) rotate(0 28.240740740740648 1.6666666666666288)" stroke="none"><path fill="#1e1e1e" d="M 0.77,-2.32 Q 0.77,-2.32 1.26,-2.20 1.76,-2.09 3.05,-1.61 4.34,-1.13 5.50,-1.37 6.66,-1.60 7.86,-1.66 9.06,-1.72 10.30,-1.78 11.54,-1.84 12.67,-1.78 13.81,-1.72 14.87,-1.39 15.93,-1.06 17.33,-0.75 18.73,-0.45 19.90,-0.37 21.08,-0.28 22.56,-0.29 24.05,-0.30 25.35,-0.56 26.66,-0.82 27.82,-0.95 28.97,-1.08 30.14,-1.27 31.32,-1.46 32.79,-1.66 34.26,-1.86 35.77,-1.78 37.29,-1.69 38.40,-1.53 39.52,-1.37 40.62,-1.20 41.73,-1.02 42.99,-1.03 44.25,-1.04 45.70,-0.88 47.16,-0.72 48.38,-0.71 49.60,-0.70 50.78,-0.71 51.97,-0.71 54.22,-0.72 56.48,-0.72 57.09,-0.62 57.71,-0.52 58.27,-0.22 58.82,0.06 59.25,0.51 59.68,0.97 59.95,1.54 60.21,2.11 60.28,2.73 60.34,3.35 60.21,3.96 60.07,4.58 59.75,5.11 59.43,5.65 58.95,6.06 58.47,6.46 57.89,6.69 57.31,6.93 56.68,6.96 56.06,6.99 55.45,6.83 54.85,6.66 54.33,6.31 53.81,5.95 53.43,5.46 53.05,4.96 52.85,4.36 52.65,3.77 52.65,3.14 52.65,2.52 52.85,1.92 53.05,1.33 53.43,0.83 53.81,0.33 54.33,-0.01 54.85,-0.36 55.45,-0.53 56.06,-0.70 56.68,-0.66 57.31,-0.63 57.89,-0.40 58.47,-0.17 58.95,0.23 59.43,0.64 59.75,1.17 60.07,1.71 60.21,2.32 60.34,2.93 60.28,3.56 60.21,4.18 59.94,4.75 59.68,5.32 59.25,5.77 58.82,6.23 58.27,6.52 57.71,6.81 57.09,6.92 56.48,7.02 56.48,7.02 56.48,7.02 54.22,7.01 51.97,7.01 50.78,7.00 49.60,7.00 48.33,6.90 47.06,6.79 45.81,6.70 44.57,6.60 43.39,6.59 42.21,6.58 40.99,6.53 39.76,6.49 38.43,6.14 37.10,5.79 35.92,5.63 34.73,5.48 33.48,5.68 32.24,5.88 31.08,6.06 29.93,6.24 28.78,6.28 27.64,6.33 26.17,6.65 24.70,6.97 23.34,6.95 21.98,6.94 20.79,6.81 19.59,6.69 18.31,6.51 17.03,6.33 15.68,5.97 14.34,5.61 13.24,5.22 12.14,4.82 10.82,4.76 9.49,4.71 8.42,4.65 7.35,4.59 6.04,4.41 4.74,4.23 3.49,4.06 2.25,3.88 1.20,3.31 0.15,2.73 -0.30,2.52 -0.77,2.32 -1.04,2.19 -1.30,2.06 -1.53,1.88 -1.76,1.69 -1.94,1.46 -2.11,1.22 -2.23,0.95 -2.35,0.68 -2.39,0.39 -2.44,0.09 -2.42,-0.19 -2.39,-0.48 -2.30,-0.76 -2.21,-1.04 -2.05,-1.29 -1.89,-1.54 -1.68,-1.75 -1.47,-1.95 -1.21,-2.10 -0.95,-2.25 -0.67,-2.33 -0.39,-2.41 -0.09,-2.42 0.19,-2.43 0.48,-2.38 0.77,-2.32 0.77,-2.32 L 0.77,-2.32 Z"></path></g><g transform="translate(64.13023901969791 15.429630980944808) rotate(0 7.314814814814781 23.0555555555556)" stroke="none"><path fill="#1e1e1e" d="M 0,2.48 Q 0,2.48 -0.53,2.53 -1.06,2.57 -2.18,2.69 -3.31,2.80 -4.65,2.69 -5.98,2.59 -7.20,2.62 -8.41,2.65 -9.52,2.62 -10.62,2.59 -12.00,2.39 -13.38,2.20 -14.49,2.31 -15.60,2.41 -16.71,2.44 -17.83,2.47 -19.05,2.77 -20.27,3.06 -21.37,3.18 -22.48,3.29 -23.71,3.47 -24.94,3.65 -24.48,2.58 -24.02,1.51 -25.17,-0.04 -26.32,-1.59 -24.80,-0.59 -23.28,0.41 -21.75,0.39 -20.22,0.37 -19.19,0.71 -18.15,1.05 -16.89,1.25 -15.64,1.45 -14.51,1.56 -13.39,1.68 -11.91,2.00 -10.44,2.32 -9.28,2.29 -8.12,2.25 -6.85,2.25 -5.57,2.25 -4.43,2.24 -3.30,2.24 -2.07,2.24 -0.85,2.25 0.61,2.33 2.08,2.41 3.15,2.42 4.22,2.43 5.53,2.43 6.84,2.44 8.55,2.61 10.27,2.79 11.38,2.80 12.48,2.81 13.61,2.81 14.74,2.82 15.83,2.66 16.92,2.51 18.13,2.38 19.34,2.24 20.39,2.54 21.43,2.83 22.37,5.22 23.31,7.61 22.64,8.80 21.97,10.00 20.86,10.74 19.75,11.48 18.77,11.93 17.79,12.38 16.68,12.65 15.56,12.91 14.26,13.39 12.95,13.87 11.91,14.17 10.87,14.48 9.52,14.62 8.18,14.76 6.97,14.77 5.76,14.77 4.67,14.95 3.58,15.13 2.31,15.14 1.04,15.15 -0.12,14.98 -1.28,14.81 -2.46,14.52 -3.64,14.23 -4.74,14.03 -5.84,13.83 -7.23,13.62 -8.62,13.42 -9.81,13.42 -11.01,13.43 -12.18,13.43 -13.35,13.43 -14.55,13.52 -15.75,13.60 -17.04,13.62 -18.32,13.63 -19.58,13.63 -20.83,13.64 -22.00,13.64 -23.16,13.64 -24.24,13.65 -25.33,13.65 -25.45,13.65 -25.56,13.66 -26.02,13.60 -26.48,13.54 -26.92,13.38 -27.35,13.22 -27.73,12.95 -28.11,12.69 -28.42,12.34 -28.73,11.99 -28.94,11.58 -29.16,11.17 -29.27,10.72 -29.38,10.27 -29.38,9.81 -29.38,9.35 -29.27,8.90 -29.16,8.45 -28.94,8.04 -28.73,7.62 -28.42,7.28 -28.11,6.93 -27.73,6.67 -27.35,6.40 -26.92,6.24 -26.48,6.08 -26.02,6.02 -25.56,5.96 -24.11,6.61 -22.67,7.26 -21.67,8.27 -20.67,9.29 -19.70,9.90 -18.73,10.52 -17.67,11.47 -16.62,12.42 -15.67,13.22 -14.73,14.03 -13.72,14.77 -12.71,15.51 -11.38,16.23 -10.05,16.94 -8.79,17.39 -7.53,17.85 -6.55,18.27 -5.56,18.70 -4.44,19.20 -3.31,19.70 -2.16,19.97 -1.02,20.24 0.37,20.27 1.77,20.31 3.35,20.02 4.93,19.72 6.16,18.53 7.39,17.33 8.31,16.73 9.24,16.13 10.32,15.52 11.40,14.90 12.56,14.45 13.73,13.99 14.90,13.75 16.08,13.51 14.85,14.42 13.63,15.34 14.29,14.30 14.95,13.26 16.03,12.27 17.11,11.27 17.90,10.28 18.69,9.28 18.42,10.59 18.14,11.90 19.08,12.59 20.01,13.28 18.58,13.99 17.15,14.70 16.39,15.50 15.62,16.30 15.88,14.80 16.15,13.30 15.30,12.33 14.45,11.36 15.74,11.43 17.02,11.50 16.20,12.19 15.39,12.89 16.07,11.63 16.75,10.36 17.32,9.41 17.89,8.45 18.57,7.14 19.25,5.84 20.34,4.96 21.43,4.08 22.57,3.88 23.70,3.68 25.22,4.44 26.73,5.19 27.61,6.53 28.49,7.86 28.58,9.02 28.67,10.19 29.02,11.41 29.36,12.63 29.50,13.72 29.64,14.82 30.17,15.80 30.70,16.78 31.37,18.26 32.04,19.73 32.37,21.09 32.70,22.46 33.26,23.92 33.82,25.38 34.06,26.44 34.30,27.50 34.55,28.77 34.80,30.04 35.15,31.14 35.50,32.25 36.01,33.25 36.52,34.25 36.69,35.34 36.86,36.42 36.17,35.08 35.49,33.75 36.26,34.94 37.02,36.13 37.05,37.41 37.08,38.70 36.59,39.81 36.11,40.93 34.79,41.65 33.48,42.36 32.10,42.14 30.72,41.91 29.32,41.10 27.93,40.29 27.15,39.34 26.38,38.40 25.61,37.28 24.85,36.17 24.13,35.33 23.42,34.49 22.53,33.19 21.63,31.89 20.82,30.66 20.02,29.43 19.30,28.36 18.59,27.28 17.64,26.04 16.69,24.80 15.66,23.49 14.63,22.18 13.91,21.25 13.20,20.32 12.94,18.99 12.68,17.66 13.49,16.16 14.30,14.66 15.40,14.18 16.49,13.71 17.66,14.09 18.83,14.46 20.03,15.37 21.24,16.27 22.16,16.92 23.08,17.57 24.42,17.99 25.76,18.41 26.49,19.65 27.23,20.88 27.63,22.13 28.02,23.38 28.46,24.52 28.90,25.67 29.61,26.63 30.33,27.59 31.04,28.94 31.76,30.30 32.28,31.27 32.80,32.24 33.19,33.62 33.58,35.00 33.60,36.24 33.63,37.47 33.54,38.58 33.46,39.68 32.64,41.09 31.82,42.50 30.49,43.34 29.17,44.17 27.99,44.46 26.82,44.75 25.44,45.60 24.07,46.46 24.43,45.43 24.79,44.40 23.96,42.94 23.14,41.47 24.27,41.46 25.41,41.45 27.22,41.61 29.03,41.77 30.84,42.31 32.66,42.85 33.89,42.69 35.12,42.52 36.43,42.62 37.74,42.72 36.36,43.30 34.98,43.89 34.39,44.91 33.79,45.94 33.36,44.77 32.92,43.60 32.68,42.49 32.43,41.39 32.14,40.10 31.84,38.82 31.65,37.64 31.47,36.45 30.95,35.07 30.42,33.68 30.05,32.37 29.68,31.07 29.31,29.98 28.93,28.89 28.63,27.75 28.33,26.60 28.31,25.54 28.29,24.48 28.20,23.22 28.11,21.97 27.41,20.69 26.71,19.42 26.44,18.34 26.17,17.26 25.72,16.25 25.26,15.25 25.05,13.94 24.83,12.63 24.80,11.49 24.77,10.35 25.28,11.56 25.78,12.78 25.12,11.38 24.46,9.98 24.29,8.79 24.13,7.61 23.72,6.51 23.32,5.42 24.36,6.83 25.40,8.25 25.00,8.00 24.59,7.76 24.26,7.42 23.92,7.08 23.67,6.68 23.43,6.27 23.29,5.82 23.15,5.36 23.12,4.89 23.09,4.42 23.18,3.95 23.26,3.48 23.46,3.05 23.65,2.62 23.94,2.24 24.24,1.87 24.61,1.58 24.99,1.28 25.42,1.09 25.85,0.89 26.32,0.81 26.79,0.72 27.26,0.75 27.73,0.78 28.19,0.92 28.64,1.06 29.80,2.90 30.97,4.73 31.05,6.19 31.13,7.64 31.12,8.81 31.12,9.98 31.50,11.17 31.89,12.35 32.39,13.34 32.88,14.33 33.29,15.37 33.71,16.41 33.97,17.45 34.24,18.49 35.03,19.56 35.81,20.63 36.41,21.84 37.00,23.06 37.61,24.43 38.21,25.81 38.55,27.08 38.89,28.35 38.90,29.43 38.91,30.50 39.32,32.01 39.73,33.51 40.06,34.70 40.38,35.88 40.38,37.02 40.39,38.16 39.82,36.94 39.25,35.71 40.21,36.86 41.17,38.01 41.84,38.89 42.51,39.76 43.09,41.10 43.67,42.44 44.16,43.63 44.65,44.82 44.05,46.75 43.45,48.69 43.26,46.64 43.07,44.59 42.33,43.71 41.59,42.84 42.95,43.54 44.31,44.25 45.18,44.88 46.05,45.51 46.20,45.96 46.34,46.41 46.37,46.88 46.41,47.36 46.32,47.82 46.24,48.29 46.05,48.72 45.86,49.16 45.57,49.53 45.28,49.91 44.91,50.20 44.54,50.50 44.11,50.70 43.68,50.90 43.21,50.99 42.75,51.07 42.27,51.05 41.80,51.02 41.35,50.89 40.89,50.75 40.48,50.51 40.08,50.27 39.74,49.93 39.40,49.60 39.15,49.20 38.90,48.79 41.73,49.56 44.56,50.34 43.52,50.73 42.48,51.13 40.72,50.45 38.96,49.77 38.04,49.17 37.12,48.57 36.33,47.80 35.53,47.04 35.20,46.02 34.87,45.00 34.35,43.88 33.83,42.75 33.56,41.56 33.30,40.36 33.62,38.60 33.95,36.83 35.32,35.78 36.70,34.73 38.49,35.36 40.29,35.98 41.25,37.36 42.21,38.74 42.30,39.08 42.39,39.41 42.46,39.88 42.52,40.35 42.47,40.82 42.42,41.30 42.26,41.74 42.10,42.19 41.84,42.58 41.58,42.98 41.23,43.30 40.88,43.62 40.46,43.85 40.05,44.08 39.59,44.20 39.13,44.32 38.66,44.33 38.18,44.34 37.72,44.23 37.26,44.13 36.83,43.92 36.41,43.70 36.05,43.39 35.69,43.09 35.41,42.70 35.13,42.32 34.96,41.88 34.78,41.43 36.05,42.67 37.32,43.92 36.29,44.60 35.26,45.29 34.31,45.78 33.36,46.27 32.28,46.55 31.21,46.83 29.93,46.99 28.66,47.15 27.54,47.17 26.43,47.18 25.08,47.18 23.72,47.17 24.88,46.55 26.03,45.94 25.11,46.98 24.20,48.03 23.10,48.41 22.01,48.79 20.83,48.99 19.66,49.19 17.37,48.64 15.08,48.09 14.64,47.64 14.21,47.18 13.94,46.62 13.68,46.05 13.61,45.43 13.54,44.81 13.67,44.19 13.80,43.58 14.12,43.04 14.44,42.50 14.92,42.10 15.39,41.69 15.97,41.45 16.55,41.22 17.18,41.18 17.80,41.15 18.41,41.31 19.01,41.47 19.53,41.82 20.05,42.17 20.43,42.67 20.81,43.17 21.02,43.76 21.22,44.35 21.22,44.98 21.22,45.60 21.03,46.20 20.83,46.79 20.45,47.29 20.08,47.79 19.56,48.15 19.04,48.50 18.44,48.67 17.84,48.84 17.21,48.81 16.59,48.78 16.01,48.55 15.42,48.32 14.94,47.92 14.47,47.51 14.14,46.98 13.81,46.44 13.68,45.83 13.54,45.22 13.60,44.60 13.67,43.98 13.93,43.41 14.19,42.84 14.62,42.38 15.05,41.93 15.60,41.63 16.15,41.33 16.77,41.23 17.38,41.13 18.00,41.22 18.62,41.32 19.17,41.61 19.73,41.90 19.73,41.90 19.73,41.90 19.63,41.83 19.54,41.75 20.31,40.97 21.08,40.20 22.78,39.84 24.49,39.48 25.82,39.46 27.16,39.44 28.26,39.60 29.36,39.77 30.97,38.87 32.59,37.97 33.48,37.23 34.37,36.49 35.40,36.20 36.43,35.91 37.60,36.04 38.78,36.18 39.86,36.77 40.94,37.36 41.66,38.39 42.39,39.41 42.46,39.88 42.52,40.35 42.47,40.82 42.42,41.29 42.26,41.74 42.10,42.19 41.84,42.58 41.58,42.98 41.23,43.30 40.88,43.62 40.47,43.85 40.05,44.08 39.59,44.20 39.13,44.32 38.66,44.33 38.18,44.34 37.72,44.23 37.26,44.13 36.83,43.92 36.41,43.70 36.05,43.40 35.69,43.09 35.41,42.70 35.13,42.32 34.96,41.88 34.78,41.43 34.58,40.48 34.38,39.53 35.20,40.29 36.03,41.06 37.81,41.47 39.59,41.89 40.06,40.56 40.54,39.22 41.34,40.15 42.14,41.07 42.45,42.58 42.75,44.08 41.91,43.08 41.06,42.08 42.03,42.98 43.00,43.88 41.65,43.96 40.31,44.04 43.18,44.77 46.05,45.51 46.20,45.96 46.34,46.41 46.37,46.88 46.41,47.36 46.32,47.82 46.24,48.29 46.05,48.72 45.86,49.16 45.57,49.53 45.28,49.91 44.91,50.20 44.54,50.50 44.11,50.70 43.68,50.90 43.21,50.98 42.75,51.07 42.27,51.05 41.80,51.02 41.35,50.89 40.89,50.75 40.48,50.51 40.08,50.27 39.74,49.93 39.40,49.60 39.15,49.20 38.90,48.79 38.96,48.89 39.02,48.99 40.34,49.88 41.67,50.78 40.61,50.59 39.55,50.40 38.48,49.27 37.41,48.14 37.80,45.58 38.20,43.01 37.50,44.05 36.81,45.09 37.42,45.97 38.02,46.85 37.33,45.90 36.63,44.94 35.99,44.08 35.35,43.23 34.63,42.21 33.91,41.19 33.24,39.56 32.56,37.94 32.48,36.75 32.39,35.56 31.82,33.87 31.26,32.18 31.41,31.09 31.55,30.01 30.97,28.94 30.39,27.87 30.03,26.68 29.68,25.49 28.95,24.54 28.22,23.60 27.67,22.47 27.12,21.34 26.64,19.79 26.15,18.25 25.49,17.09 24.82,15.93 24.48,14.53 24.13,13.13 23.72,11.67 23.32,10.21 23.30,8.98 23.28,7.76 23.19,6.37 23.09,4.97 24.25,6.61 25.40,8.25 25.00,8.00 24.59,7.76 24.26,7.42 23.92,7.08 23.67,6.68 23.43,6.27 23.29,5.82 23.15,5.36 23.12,4.89 23.09,4.42 23.18,3.95 23.26,3.48 23.46,3.05 23.65,2.62 23.94,2.24 24.24,1.87 24.61,1.58 24.99,1.28 25.42,1.09 25.85,0.89 26.32,0.81 26.79,0.72 27.26,0.75 27.73,0.78 28.19,0.92 28.64,1.06 29.75,2.36 30.86,3.65 31.34,4.99 31.82,6.34 31.25,5.42 30.68,4.50 30.94,5.81 31.19,7.13 31.69,8.15 32.20,9.18 32.33,10.52 32.45,11.85 32.81,13.13 33.16,14.41 32.57,13.43 31.97,12.45 32.54,13.36 33.11,14.27 33.64,15.79 34.16,17.31 34.91,19.01 35.66,20.70 35.46,22.45 35.27,24.20 35.76,25.36 36.25,26.51 36.59,27.69 36.93,28.86 37.35,30.05 37.77,31.23 38.24,32.28 38.70,33.33 38.88,34.53 39.06,35.72 39.36,36.92 39.66,38.11 39.12,37.15 38.58,36.19 39.21,37.56 39.85,38.93 40.21,39.95 40.57,40.97 40.57,42.39 40.56,43.81 40.72,45.01 40.88,46.22 40.20,47.46 39.52,48.69 37.93,49.45 36.35,50.21 35.13,50.11 33.92,50.01 32.45,49.91 30.98,49.80 29.69,49.63 28.39,49.46 27.33,49.37 26.26,49.28 25.13,49.28 23.99,49.27 22.84,49.24 21.68,49.20 20.62,48.80 19.56,48.39 18.52,47.31 17.47,46.22 17.29,44.86 17.10,43.49 17.69,42.27 18.28,41.05 19.26,40.51 20.24,39.97 21.50,38.84 22.76,37.72 24.63,37.29 26.50,36.85 27.51,36.34 28.53,35.84 27.26,36.67 25.99,37.49 25.86,36.29 25.73,35.08 25.08,33.76 24.42,32.44 23.60,31.28 22.78,30.12 22.16,29.14 21.54,28.16 21.08,26.78 20.62,25.40 20.34,24.35 20.05,23.30 21.17,24.02 22.30,24.74 20.89,24.51 19.49,24.28 18.37,23.48 17.24,22.68 16.05,21.84 14.86,21.00 16.18,20.62 17.50,20.25 18.75,18.49 19.99,16.72 20.88,17.77 21.77,18.82 22.79,20.08 23.81,21.34 24.59,22.55 25.37,23.76 26.18,24.99 26.99,26.22 27.67,27.19 28.35,28.17 29.10,29.40 29.84,30.64 30.63,31.44 31.43,32.25 31.88,33.44 32.32,34.62 31.33,35.26 30.33,35.89 29.87,36.90 29.41,37.92 30.02,38.87 30.64,39.83 30.14,38.88 29.65,37.94 29.09,36.78 28.54,35.61 28.01,34.19 27.49,32.77 27.39,31.62 27.29,30.48 27.05,29.07 26.82,27.67 26.28,26.74 25.74,25.82 25.49,24.78 25.24,23.74 25.05,22.42 24.87,21.10 23.93,20.10 22.99,19.10 22.59,18.08 22.18,17.06 21.96,15.58 21.73,14.10 21.42,13.04 21.10,11.98 21.66,10.98 22.22,9.98 23.04,10.72 23.86,11.46 24.84,10.55 25.82,9.64 25.31,10.94 24.79,12.25 23.93,13.32 23.07,14.38 22.30,15.43 21.52,16.48 22.10,15.41 22.68,14.35 22.28,15.63 21.88,16.92 20.93,17.75 19.99,18.58 18.50,18.91 17.01,19.23 15.90,19.22 14.79,19.21 13.43,18.96 12.07,18.72 10.49,17.35 8.91,15.99 9.06,14.00 9.21,12.02 10.17,11.05 11.12,10.08 11.97,9.35 12.82,8.63 13.85,8.21 14.88,7.79 16.32,6.83 17.76,5.87 19.40,5.76 21.05,5.65 22.14,6.20 23.24,6.75 24.10,7.56 24.96,8.38 25.14,10.04 25.32,11.71 24.56,13.14 23.80,14.57 23.04,15.38 22.29,16.18 21.47,17.10 20.65,18.03 19.99,18.90 19.32,19.78 18.21,20.28 17.10,20.77 15.71,21.17 14.32,21.56 13.27,22.13 12.21,22.70 11.03,24.05 9.85,25.39 8.85,25.82 7.85,26.24 6.36,26.67 4.88,27.10 3.59,27.28 2.31,27.46 1.02,27.43 -0.25,27.39 -1.41,27.26 -2.57,27.13 -4.12,26.76 -5.68,26.39 -6.91,25.86 -8.14,25.33 -9.16,24.97 -10.19,24.62 -11.61,24.14 -13.02,23.66 -14.65,22.90 -16.29,22.13 -17.55,21.32 -18.81,20.51 -19.86,19.65 -20.91,18.79 -22.09,17.74 -23.28,16.68 -24.44,15.76 -25.60,14.83 -26.81,13.81 -28.02,12.79 -26.79,13.22 -25.56,13.66 -26.02,13.60 -26.48,13.54 -26.92,13.38 -27.35,13.22 -27.73,12.95 -28.11,12.69 -28.42,12.34 -28.73,11.99 -28.94,11.58 -29.16,11.17 -29.27,10.72 -29.38,10.27 -29.38,9.81 -29.38,9.35 -29.27,8.90 -29.16,8.45 -28.94,8.04 -28.73,7.63 -28.42,7.28 -28.11,6.93 -27.73,6.67 -27.35,6.40 -26.92,6.24 -26.48,6.08 -26.02,6.02 -25.56,5.96 -25.45,5.97 -25.33,5.97 -24.24,5.97 -23.16,5.98 -22.00,5.98 -20.83,5.98 -19.74,5.98 -18.64,5.99 -17.48,5.99 -16.32,5.99 -15.15,5.91 -13.99,5.82 -12.79,5.82 -11.59,5.82 -10.39,5.83 -9.18,5.85 -8.05,5.95 -6.93,6.06 -5.31,6.27 -3.70,6.48 -2.36,6.75 -1.02,7.02 0.34,7.22 1.70,7.43 2.82,7.41 3.94,7.40 5.71,7.23 7.49,7.05 8.60,6.95 9.71,6.85 10.80,6.48 11.89,6.11 13.38,5.62 14.87,5.14 16.09,4.98 17.30,4.82 17.78,7.42 18.25,10.01 17.17,10.16 16.10,10.30 14.87,10.41 13.64,10.51 12.33,10.50 11.01,10.49 9.73,10.32 8.44,10.14 7.25,10.15 6.07,10.15 4.87,10.15 3.66,10.16 2.58,10.13 1.50,10.10 0.32,10.04 -0.85,9.97 -2.07,9.97 -3.30,9.97 -4.43,9.97 -5.57,9.97 -6.66,9.96 -7.75,9.96 -8.81,9.94 -9.88,9.92 -10.97,9.83 -12.07,9.74 -13.21,9.52 -14.35,9.30 -15.85,9.07 -17.34,8.84 -18.42,8.64 -19.50,8.44 -20.77,8.07 -22.03,7.71 -23.22,7.52 -24.42,7.33 -25.57,7.10 -26.73,6.88 -27.79,6.21 -28.86,5.53 -29.72,4.78 -30.59,4.03 -31.05,2.41 -31.51,0.78 -31.10,-0.36 -30.69,-1.51 -29.58,-2.21 -28.48,-2.91 -26.73,-3.39 -24.98,-3.87 -23.34,-4.05 -21.71,-4.22 -20.64,-4.38 -19.57,-4.54 -18.37,-4.61 -17.18,-4.68 -16.05,-4.64 -14.93,-4.60 -13.61,-4.47 -12.30,-4.34 -11.19,-4.19 -10.08,-4.04 -8.88,-3.88 -7.68,-3.72 -6.57,-3.45 -5.46,-3.18 -4.38,-2.99 -3.31,-2.80 -2.18,-2.69 -1.06,-2.57 -0.53,-2.53 0,-2.48 0.29,-2.45 0.59,-2.41 0.87,-2.30 1.15,-2.20 1.40,-2.03 1.64,-1.86 1.84,-1.63 2.04,-1.41 2.18,-1.14 2.32,-0.88 2.39,-0.59 2.46,-0.29 2.46,0.00 2.46,0.29 2.39,0.59 2.32,0.88 2.18,1.14 2.04,1.41 1.84,1.63 1.64,1.86 1.40,2.03 1.15,2.20 0.87,2.30 0.59,2.41 0.29,2.45 -0.00,2.48 -0.00,2.48 L 0,2.48 Z"></path></g><g transform="translate(38.389498278957035 20.429630980944808) rotate(0 8.148148148148266 -3.5185185185185333)" stroke="none"><path fill="#1e1e1e" d="M -1.40,-2.03 Q -1.40,-2.03 -0.74,-2.55 -0.08,-3.07 0.50,-1.81 1.08,-0.54 0.00,-1.23 -1.07,-1.93 -2.28,-1.70 -3.49,-1.47 -4.69,-1.40 -5.89,-1.33 -6.95,-1.66 -8.00,-1.99 -8.88,-2.60 -9.75,-3.22 -10.00,-3.20 -10.25,-3.17 -10.57,-3.46 -10.88,-3.75 -11.12,-4.10 -11.36,-4.46 -11.51,-4.86 -11.66,-5.26 -11.70,-5.68 -11.75,-6.11 -11.70,-6.53 -11.64,-6.96 -11.49,-7.35 -11.33,-7.75 -11.08,-8.10 -10.84,-8.45 -10.52,-8.73 -10.19,-9.01 -9.81,-9.21 -9.43,-9.40 -9.01,-9.50 -8.60,-9.60 -8.17,-9.60 -7.74,-9.59 -7.33,-9.49 -6.92,-9.38 -6.54,-9.18 -6.16,-8.97 -7.92,-9.13 -9.67,-9.28 -7.84,-9.14 -6.01,-9.00 -4.82,-9.59 -3.63,-10.18 -2.44,-10.45 -1.25,-10.71 -0.12,-10.73 1.00,-10.75 2.16,-10.76 3.32,-10.78 4.47,-10.69 5.63,-10.61 6.95,-10.16 8.28,-9.71 9.84,-9.86 11.40,-10.01 13.08,-9.83 14.76,-9.66 16.09,-9.21 17.43,-8.76 18.46,-8.32 19.48,-7.88 20.96,-7.38 22.44,-6.87 23.30,-5.71 24.17,-4.56 23.16,-5.57 22.16,-6.57 23.93,-5.79 25.69,-5.00 26.26,-4.73 26.82,-4.46 27.27,-4.03 27.72,-3.60 28.01,-3.04 28.29,-2.49 28.39,-1.87 28.48,-1.25 28.38,-0.64 28.27,-0.02 27.97,0.52 27.67,1.07 27.22,1.49 26.76,1.91 26.19,2.17 25.62,2.43 25.00,2.49 24.38,2.55 23.77,2.41 23.16,2.27 22.63,1.94 22.10,1.61 21.70,1.13 21.30,0.65 21.07,0.07 20.85,-0.50 20.82,-1.12 20.79,-1.75 20.97,-2.35 21.14,-2.95 21.49,-3.46 21.85,-3.97 22.35,-4.35 22.85,-4.72 23.45,-4.91 24.04,-5.11 24.66,-5.10 25.29,-5.09 25.88,-4.89 26.47,-4.68 26.96,-4.30 27.45,-3.92 27.80,-3.40 28.14,-2.88 28.30,-2.27 28.47,-1.67 28.43,-1.05 28.38,-0.42 28.15,0.14 27.91,0.72 27.50,1.19 27.09,1.67 26.55,1.98 26.02,2.30 25.40,2.43 24.79,2.55 24.17,2.48 23.55,2.41 23.55,2.41 23.55,2.41 21.97,1.66 20.38,0.92 19.19,0.14 18.01,-0.64 16.70,-1.04 15.39,-1.44 14.28,-1.89 13.18,-2.35 11.94,-2.52 10.69,-2.69 9.33,-2.79 7.97,-2.89 6.73,-2.99 5.50,-3.10 4.15,-3.20 2.79,-3.29 1.78,-3.82 0.76,-4.34 -0.89,-3.75 -2.54,-3.15 -3.52,-2.73 -4.51,-2.30 -6.00,-2.26 -7.49,-2.23 -8.63,-2.61 -9.77,-3.00 -8.22,-2.95 -6.67,-2.91 -8.46,-3.04 -10.25,-3.17 -10.56,-3.46 -10.88,-3.75 -11.12,-4.10 -11.36,-4.46 -11.51,-4.86 -11.66,-5.26 -11.70,-5.68 -11.75,-6.11 -11.70,-6.53 -11.64,-6.96 -11.49,-7.35 -11.33,-7.75 -11.08,-8.10 -10.84,-8.45 -10.52,-8.73 -10.19,-9.01 -9.81,-9.21 -9.43,-9.40 -9.02,-9.50 -8.60,-9.60 -8.17,-9.60 -7.74,-9.59 -7.33,-9.49 -6.92,-9.38 -6.54,-9.18 -6.16,-8.98 -5.48,-8.21 -4.80,-7.44 -5.70,-8.18 -6.60,-8.92 -5.63,-8.47 -4.67,-8.02 -3.58,-7.95 -2.50,-7.89 -1.21,-7.72 0.06,-7.54 1.21,-6.94 2.35,-6.34 3.34,-5.77 4.33,-5.21 4.98,-4.31 5.63,-3.41 5.18,-1.77 4.73,-0.13 3.79,0.51 2.84,1.15 2.12,1.59 1.40,2.03 1.14,2.17 0.88,2.31 0.59,2.38 0.30,2.45 0.00,2.45 -0.29,2.45 -0.58,2.38 -0.87,2.31 -1.13,2.17 -1.40,2.04 -1.62,1.84 -1.85,1.64 -2.02,1.39 -2.19,1.15 -2.29,0.87 -2.40,0.59 -2.44,0.29 -2.47,0.00 -2.44,-0.29 -2.40,-0.58 -2.30,-0.86 -2.19,-1.14 -2.02,-1.39 -1.85,-1.63 -1.63,-1.83 -1.40,-2.03 -1.40,-2.03 L -1.40,-2.03 Z"></path></g><g stroke-linecap="round"><g transform="translate(37.46357235303094 14.133334684648503) rotate(0 -6.851851851851734 18.611111111111143)"><path d="M0.52 0.54 C-1.76 6.83, -11.32 31.11, -13.69 37.22 M0.12 0.35 C-2.22 6.76, -11.75 31.68, -14.11 37.92" stroke="#1e1e1e" stroke-width="1" fill="none"></path></g></g><mask></mask><g stroke-linecap="round"><g transform="translate(79.24649179120252 15.429630980944808) rotate(0 6.851851851851734 18.611111111111143)"><path d="M-0.13 -0.47 C2.17 5.88, 11.43 31.37, 13.68 37.57 M0.81 0.48 C3.04 6.71, 10.95 30.68, 13.24 36.78" stroke="#1e1e1e" stroke-width="1" fill="none"></path></g></g><mask></mask><g stroke-linecap="round"><g transform="translate(49.87097976043833 16.91111246242633) rotate(0 -6.851851851851734 17.685185185185162)"><path d="M0.21 0.38 C-2.04 6.15, -11.29 28.98, -13.52 34.85 M-0.35 0.11 C-2.65 5.89, -11.71 29.52, -13.86 35.29" stroke="#1e1e1e" stroke-width="1" fill="none"></path></g></g><mask></mask><g stroke-linecap="round"><g transform="translate(66.83908438379513 18.207408758722636) rotate(0 6.851851851851734 17.685185185185162)"><path d="M-0.02 0.34 C2.23 6.23, 11.11 29.12, 13.38 34.88 M-0.7 0.04 C1.74 6.03, 12.13 29.46, 14.44 35.32" stroke="#1e1e1e" stroke-width="1" fill="none"></path></g></g><mask></mask><g stroke-linecap="round"><g transform="translate(59.130239019697456 16.91111246242633) rotate(0 -1.2037037037036953 17.5)"><path d="M0.37 -0.42 C-0.13 5.44, -2.02 29.51, -2.52 35.37 M-0.1 0.56 C-0.73 6.24, -2.51 28.81, -3.01 34.59" stroke="#1e1e1e" stroke-width="1" fill="none"></path></g></g><mask></mask><g transform="translate(27.463572353029576 28.269137153785096) rotate(0 -2.160493827160508 2.4691358024691112)" stroke="none"><path fill="#1e1e1e" d="M 2.20,0.88 Q 2.20,0.88 2.10,1.25 1.99,1.63 1.08,2.59 0.17,3.56 -0.87,4.18 -1.92,4.80 -1.19,3.86 -0.46,2.92 -0.72,4.02 -0.98,5.13 -1.47,3.70 -1.96,2.26 -3.46,2.14 -4.97,2.03 -5.83,2.82 -6.69,3.61 -6.21,2.50 -5.73,1.39 -6.47,2.47 -7.20,3.55 -7.00,3.23 -6.79,2.90 -6.51,2.64 -6.23,2.37 -5.90,2.18 -5.56,1.99 -5.19,1.88 -4.82,1.77 -4.44,1.76 -4.05,1.75 -3.67,1.82 -3.29,1.90 -2.95,2.07 -2.60,2.23 -2.30,2.48 -2.00,2.72 -1.77,3.03 -1.54,3.34 -1.39,3.70 -1.24,4.05 -1.18,4.43 -1.12,4.81 -1.15,5.20 -1.18,5.58 -1.31,5.95 -1.43,6.31 -1.36,6.14 -1.29,5.97 -1.53,6.42 -1.78,6.88 -2.15,7.23 -2.53,7.59 -3.00,7.80 -3.47,8.02 -3.99,8.07 -4.50,8.13 -5.01,8.01 -5.51,7.90 -5.95,7.63 -6.40,7.36 -6.73,6.97 -7.06,6.57 -7.25,6.09 -7.44,5.61 -7.47,5.09 -7.49,4.57 -7.35,4.08 -7.21,3.58 -6.92,3.15 -6.63,2.72 -6.22,2.41 -5.80,2.10 -5.31,1.94 -4.82,1.77 -4.30,1.78 -3.79,1.78 -3.30,1.95 -2.81,2.11 -2.40,2.43 -1.98,2.74 -1.70,3.17 -1.41,3.60 -1.27,4.10 -1.13,4.60 -1.16,5.12 -1.19,5.63 -1.39,6.11 -1.58,6.59 -1.92,6.99 -2.25,7.38 -2.70,7.64 -3.14,7.91 -3.65,8.02 -4.16,8.13 -4.67,8.07 -5.18,8.01 -5.65,7.79 -6.12,7.57 -6.50,7.22 -6.87,6.86 -7.11,6.40 -7.35,5.94 -7.43,5.43 -7.51,4.92 -7.36,4.24 -7.20,3.55 -7.00,3.23 -6.79,2.90 -6.51,2.64 -6.23,2.37 -5.90,2.18 -5.56,1.99 -5.19,1.88 -4.82,1.77 -4.44,1.76 -4.05,1.75 -3.67,1.82 -3.29,1.90 -2.95,2.07 -2.60,2.23 -2.30,2.48 -2.00,2.72 -1.77,3.03 -1.54,3.34 -1.39,3.70 -1.24,4.05 -1.18,4.43 -1.12,4.81 -1.15,5.20 -1.18,5.58 -1.31,5.95 -1.43,6.31 -0.94,5.20 -0.44,4.09 -0.80,5.10 -1.15,6.10 -2.83,6.78 -4.51,7.45 -5.47,6.53 -6.42,5.60 -6.38,4.04 -6.35,2.48 -5.85,1.40 -5.35,0.32 -4.35,-0.16 -3.34,-0.64 -4.24,0.27 -5.14,1.19 -3.85,0.49 -2.56,-0.21 -2.38,-0.54 -2.20,-0.88 -2.06,-1.13 -1.92,-1.38 -1.73,-1.59 -1.54,-1.80 -1.30,-1.96 -1.06,-2.12 -0.79,-2.21 -0.52,-2.31 -0.24,-2.34 0.04,-2.37 0.32,-2.33 0.60,-2.29 0.87,-2.18 1.14,-2.08 1.37,-1.91 1.60,-1.74 1.79,-1.53 1.97,-1.31 2.10,-1.05 2.23,-0.80 2.29,-0.52 2.36,-0.24 2.35,0.04 2.35,0.32 2.27,0.60 2.20,0.88 2.20,0.88 L 2.20,0.88 Z"></path></g><g transform="translate(23.266041488832343 33.20740875872332) rotate(0 2.5308641975307182 -6.666666666666686)" stroke="none"><path fill="#1e1e1e" d="M -2.28,-0.81 Q -2.28,-0.81 -2.15,-1.33 -2.02,-1.84 -1.56,-3.36 -1.10,-4.88 -0.77,-6.05 -0.44,-7.22 -0.27,-8.49 -0.09,-9.76 0.37,-11.25 0.84,-12.74 2.81,-14.73 4.78,-16.71 5.33,-16.66 5.88,-16.62 6.38,-16.40 6.89,-16.18 7.29,-15.82 7.70,-15.45 7.97,-14.97 8.24,-14.49 8.34,-13.96 8.45,-13.42 8.37,-12.87 8.30,-12.33 8.05,-11.84 7.81,-11.35 7.42,-10.96 7.03,-10.57 6.54,-10.33 6.05,-10.09 5.50,-10.01 4.96,-9.94 4.42,-10.04 3.88,-10.15 3.41,-10.42 2.93,-10.69 2.56,-11.10 2.20,-11.51 1.98,-12.01 1.77,-12.51 1.72,-13.06 1.68,-13.61 1.81,-14.14 1.94,-14.67 2.24,-15.13 2.54,-15.59 2.96,-15.94 3.39,-16.28 3.91,-16.47 4.42,-16.66 4.97,-16.67 5.52,-16.69 6.04,-16.52 6.57,-16.36 7.01,-16.04 7.46,-15.72 7.78,-15.28 8.10,-14.83 8.26,-14.31 8.42,-13.78 8.40,-13.23 8.38,-12.69 8.20,-12.17 8.01,-11.66 7.66,-11.23 7.32,-10.80 6.85,-10.51 6.39,-10.21 5.86,-10.08 5.33,-9.95 5.33,-9.95 5.33,-9.95 5.80,-9.20 6.27,-8.45 5.78,-7.39 5.28,-6.33 4.82,-5.31 4.36,-4.28 3.82,-3.28 3.29,-2.28 3.01,-1.21 2.73,-0.14 2.51,0.33 2.28,0.81 2.15,1.07 2.02,1.34 1.83,1.56 1.64,1.78 1.40,1.95 1.17,2.12 0.89,2.23 0.62,2.34 0.33,2.38 0.04,2.42 -0.24,2.39 -0.53,2.37 -0.81,2.27 -1.08,2.17 -1.33,2.01 -1.57,1.84 -1.77,1.63 -1.97,1.41 -2.11,1.16 -2.25,0.90 -2.33,0.62 -2.40,0.33 -2.41,0.04 -2.41,-0.24 -2.35,-0.53 -2.28,-0.81 -2.28,-0.81 L -2.28,-0.81 Z"></path></g><g transform="translate(20.79690568636306 43.7012359192172) rotate(0 -1.8518518518519613 5.864197530864146)" stroke="none"><path fill="#1e1e1e" d="M 2.24,0.93 Q 2.24,0.93 2.10,1.37 1.97,1.82 1.60,3.09 1.22,4.36 0.85,5.42 0.48,6.48 0.04,7.76 -0.39,9.05 -0.41,10.40 -0.42,11.75 -0.51,12.27 -0.60,12.79 -0.85,13.26 -1.11,13.73 -1.49,14.09 -1.88,14.45 -2.36,14.67 -2.85,14.89 -3.37,14.94 -3.90,14.99 -4.42,14.88 -4.94,14.76 -5.39,14.48 -5.84,14.20 -6.18,13.80 -6.52,13.39 -6.71,12.90 -6.90,12.40 -6.93,11.87 -6.95,11.34 -6.81,10.83 -6.66,10.32 -6.36,9.89 -6.06,9.45 -5.64,9.13 -5.21,8.82 -4.71,8.65 -4.20,8.49 -3.67,8.49 -3.14,8.49 -2.64,8.67 -2.14,8.84 -1.72,9.16 -1.30,9.49 -1.01,9.93 -0.71,10.37 -0.58,10.88 -0.44,11.39 -0.47,11.92 -0.50,12.45 -0.70,12.94 -0.90,13.44 -1.25,13.84 -1.60,14.24 -2.05,14.51 -2.51,14.78 -3.03,14.89 -3.55,15.00 -4.07,14.94 -4.60,14.87 -5.08,14.65 -5.56,14.42 -5.94,14.05 -6.32,13.69 -6.57,13.22 -6.81,12.74 -6.89,12.22 -6.98,11.70 -6.98,11.70 -6.98,11.70 -6.21,9.02 -5.45,6.35 -5.16,5.21 -4.88,4.06 -4.32,3.12 -3.77,2.18 -3.22,1.03 -2.68,-0.11 -2.46,-0.52 -2.24,-0.93 -2.09,-1.18 -1.95,-1.44 -1.75,-1.65 -1.55,-1.87 -1.30,-2.02 -1.05,-2.18 -0.78,-2.28 -0.50,-2.37 -0.21,-2.40 0.07,-2.42 0.36,-2.38 0.65,-2.33 0.92,-2.22 1.19,-2.11 1.43,-1.94 1.66,-1.76 1.85,-1.54 2.04,-1.31 2.17,-1.05 2.29,-0.78 2.36,-0.50 2.42,-0.21 2.41,0.07 2.40,0.37 2.32,0.65 2.24,0.93 2.24,0.93 L 2.24,0.93 Z"></path></g><g transform="translate(31.537646427103937 14.318519869834404) rotate(0 -0.6172839506175478 -0.8641975308642031)" stroke="none"><path fill="#1e1e1e" d="M -1.25,2.00 Q -1.25,2.00 -1.55,1.86 -1.86,1.71 -2.68,1.27 -3.50,0.82 -3.67,0.56 -3.84,0.30 -3.94,0.00 -4.05,-0.28 -4.08,-0.59 -4.10,-0.90 -4.06,-1.21 -4.01,-1.52 -3.89,-1.81 -3.77,-2.09 -3.59,-2.35 -3.41,-2.60 -3.17,-2.80 -2.93,-3.00 -2.65,-3.13 -2.37,-3.27 -2.06,-3.34 -1.76,-3.40 -1.45,-3.39 -1.14,-3.38 -0.84,-3.30 -0.54,-3.22 -0.27,-3.06 -0.00,-2.91 0.22,-2.70 0.45,-2.49 -1.13,-2.77 -2.73,-3.06 -1.75,-3.33 -0.78,-3.60 -0.46,-3.56 -0.14,-3.52 0.15,-3.41 0.45,-3.29 0.71,-3.11 0.98,-2.93 1.19,-2.69 1.41,-2.45 1.56,-2.16 1.71,-1.88 1.78,-1.57 1.86,-1.26 1.86,-0.94 1.86,-0.61 1.79,-0.30 1.71,0.00 1.56,0.29 1.41,0.57 1.20,0.81 0.99,1.05 0.72,1.23 0.46,1.42 0.16,1.53 -0.13,1.65 -0.45,1.69 -0.77,1.73 -1.86,1.11 -2.96,0.50 -2.89,-1.42 -2.82,-3.35 -1.46,-3.66 -0.10,-3.97 0.92,-2.39 1.96,-0.82 1.63,-2.11 1.29,-3.41 1.54,-3.16 1.79,-2.92 1.97,-2.62 2.15,-2.32 2.25,-1.99 2.35,-1.66 2.37,-1.31 2.40,-0.96 2.33,-0.62 2.27,-0.28 2.13,0.03 1.99,0.34 1.77,0.62 1.56,0.89 1.28,1.11 1.01,1.32 0.69,1.47 0.38,1.61 0.03,1.67 -0.30,1.73 -0.65,1.71 -0.99,1.69 -1.33,1.59 -1.66,1.49 -1.96,1.31 -2.25,1.13 -1.79,1.30 -1.32,1.48 -1.67,1.42 -2.03,1.37 -2.36,1.23 -2.69,1.09 -2.97,0.88 -3.26,0.67 -3.49,0.39 -3.72,0.12 -3.87,-0.19 -4.03,-0.51 -4.10,-0.86 -4.18,-1.21 -4.16,-1.57 -4.15,-1.93 -4.06,-2.27 -3.96,-2.62 -3.78,-2.93 -3.61,-3.24 -3.36,-3.50 -3.11,-3.76 -2.81,-3.95 -2.51,-4.14 -2.18,-4.26 -1.84,-4.37 -1.48,-4.41 -1.13,-4.44 -1.05,-4.58 -0.98,-4.72 -0.50,-4.64 -0.03,-4.56 0.39,-4.33 0.82,-4.11 1.15,-3.75 1.48,-3.40 1.69,-2.96 1.89,-2.52 1.94,-2.04 2.00,-1.56 1.89,-1.09 1.79,-0.62 1.54,-0.20 1.29,0.20 0.92,0.52 0.55,0.83 0.10,1.01 -0.34,1.19 -0.82,1.22 -1.31,1.24 -1.77,1.11 -2.24,0.98 -2.64,0.71 -3.04,0.44 -3.33,0.05 -3.63,-0.32 -3.78,-0.78 -3.94,-1.24 -3.94,-1.72 -3.94,-2.21 -3.78,-2.67 -3.63,-3.13 -3.33,-3.51 -3.04,-3.90 -2.64,-4.17 -2.24,-4.44 -1.77,-4.57 -1.31,-4.70 -0.82,-4.67 -0.34,-4.65 0.10,-4.47 0.55,-4.29 0.92,-3.97 1.29,-3.66 1.54,-3.25 1.79,-2.83 1.89,-2.36 2.00,-1.88 1.94,-1.40 1.89,-0.92 1.69,-0.48 1.48,-0.04 1.15,0.30 0.82,0.65 0.39,0.88 -0.03,1.10 -0.51,1.18 -0.98,1.26 -0.98,1.26 -0.98,1.26 -1.15,1.37 -1.32,1.48 -1.67,1.42 -2.03,1.37 -2.36,1.23 -2.69,1.09 -2.97,0.88 -3.26,0.67 -3.49,0.39 -3.72,0.12 -3.87,-0.19 -4.03,-0.51 -4.10,-0.86 -4.18,-1.21 -4.16,-1.57 -4.15,-1.93 -4.06,-2.27 -3.96,-2.62 -3.78,-2.93 -3.61,-3.24 -3.36,-3.50 -3.12,-3.76 -2.81,-3.95 -2.51,-4.14 -2.18,-4.26 -1.84,-4.37 -1.48,-4.41 -1.13,-4.44 -0.88,-4.41 -0.64,-4.39 0.32,-3.90 1.29,-3.41 1.54,-3.16 1.78,-2.92 1.97,-2.62 2.15,-2.32 2.25,-1.99 2.35,-1.66 2.37,-1.31 2.40,-0.97 2.33,-0.62 2.27,-0.28 2.13,0.03 1.99,0.34 1.77,0.62 1.56,0.89 1.28,1.11 1.01,1.32 0.69,1.47 0.38,1.61 0.03,1.67 -0.30,1.73 -0.65,1.71 -0.99,1.69 -1.32,1.59 -1.66,1.49 -1.95,1.31 -2.25,1.13 -2.57,-0.20 -2.88,-1.54 -2.83,-0.47 -2.78,0.59 -1.47,0.53 -0.16,0.47 0.31,-0.79 0.79,-2.06 0.00,-2.83 -0.78,-3.60 -0.46,-3.56 -0.14,-3.52 0.15,-3.41 0.45,-3.29 0.71,-3.11 0.98,-2.93 1.19,-2.69 1.41,-2.45 1.56,-2.16 1.71,-1.88 1.78,-1.57 1.86,-1.26 1.86,-0.94 1.86,-0.61 1.79,-0.30 1.71,0.00 1.56,0.29 1.41,0.57 1.20,0.81 0.99,1.05 0.72,1.23 0.46,1.42 0.16,1.53 -0.13,1.65 -0.45,1.69 -0.77,1.73 -0.52,1.54 -0.27,1.36 -1.88,1.09 -3.50,0.82 -3.67,0.56 -3.84,0.30 -3.94,0.00 -4.05,-0.28 -4.08,-0.59 -4.10,-0.90 -4.06,-1.21 -4.01,-1.52 -3.89,-1.81 -3.77,-2.09 -3.59,-2.34 -3.41,-2.60 -3.17,-2.80 -2.93,-3.00 -2.65,-3.13 -2.37,-3.27 -2.07,-3.34 -1.76,-3.40 -1.45,-3.39 -1.14,-3.38 -0.84,-3.30 -0.54,-3.22 -0.27,-3.06 -0.00,-2.91 0.22,-2.70 0.45,-2.49 0.59,-2.46 0.72,-2.42 0.99,-2.21 1.25,-2.00 1.47,-1.82 1.69,-1.64 1.87,-1.42 2.04,-1.19 2.15,-0.93 2.26,-0.67 2.31,-0.38 2.36,-0.10 2.34,0.17 2.32,0.46 2.23,0.73 2.14,1.00 1.99,1.24 1.84,1.48 1.63,1.68 1.43,1.88 1.18,2.02 0.93,2.17 0.66,2.25 0.39,2.33 0.10,2.34 -0.17,2.36 -0.45,2.30 -0.73,2.24 -0.99,2.12 -1.25,2.00 -1.25,2.00 L -1.25,2.00 Z"></path></g><g transform="translate(57.95739951352334 13.701235919217197) rotate(0 1.4197530864198598 -0.06172839506177752)" stroke="none"><path fill="#1e1e1e" d="M 0,-2.39 Q 0,-2.39 1.29,-2.45 2.59,-2.51 2.98,-2.49 3.37,-2.46 3.73,-2.32 4.09,-2.17 4.38,-1.92 4.68,-1.66 4.87,-1.33 5.07,-1.00 5.15,-0.62 5.24,-0.23 5.19,0.14 5.15,0.53 4.98,0.88 4.82,1.23 4.55,1.51 4.28,1.79 3.93,1.97 3.59,2.15 3.20,2.22 2.82,2.28 2.44,2.21 2.05,2.15 1.71,1.96 1.37,1.78 1.10,1.49 0.84,1.21 0.67,0.86 0.51,0.50 0.47,0.11 0.43,-0.26 0.52,-0.64 0.61,-1.02 0.81,-1.35 1.01,-1.69 1.31,-1.94 1.61,-2.19 1.97,-2.33 2.33,-2.47 2.72,-2.49 3.11,-2.51 3.48,-2.40 3.86,-2.29 4.18,-2.07 4.50,-1.85 4.73,-1.54 4.97,-1.23 5.09,-0.86 5.21,-0.49 5.21,-0.10 5.21,0.27 5.08,0.64 4.95,1.01 4.71,1.32 4.48,1.63 4.15,1.84 3.83,2.06 3.46,2.16 3.08,2.26 3.08,2.26 3.08,2.26 1.54,2.32 0,2.39 -0.28,2.35 -0.57,2.32 -0.84,2.21 -1.11,2.11 -1.34,1.95 -1.58,1.78 -1.77,1.57 -1.96,1.35 -2.10,1.10 -2.23,0.84 -2.30,0.56 -2.37,0.28 -2.37,-0.00 -2.37,-0.28 -2.30,-0.56 -2.23,-0.84 -2.10,-1.10 -1.96,-1.35 -1.77,-1.57 -1.58,-1.79 -1.34,-1.95 -1.11,-2.11 -0.84,-2.21 -0.57,-2.32 -0.28,-2.35 0.00,-2.39 0.00,-2.39 L 0,-2.39 Z"></path></g><g transform="translate(87.21665877278292 30.86172974637759) rotate(0 -0.2469135802468827 1.2962962962963047)" stroke="none"><path fill="#1e1e1e" d="M 2.29,0.61 Q 2.29,0.61 2.17,1.66 2.04,2.71 1.96,3.09 1.87,3.48 1.67,3.81 1.47,4.15 1.18,4.40 0.88,4.66 0.51,4.80 0.15,4.95 -0.23,4.97 -0.62,4.99 -1.00,4.89 -1.37,4.79 -1.70,4.57 -2.02,4.35 -2.26,4.04 -2.50,3.73 -2.62,3.36 -2.75,2.99 -2.75,2.60 -2.75,2.20 -2.63,1.83 -2.51,1.46 -2.27,1.15 -2.03,0.84 -1.71,0.62 -1.39,0.40 -1.01,0.29 -0.63,0.18 -0.24,0.20 0.14,0.22 0.50,0.37 0.86,0.51 1.16,0.76 1.46,1.02 1.67,1.35 1.87,1.69 1.95,2.07 2.04,2.45 2.00,2.84 1.96,3.23 1.79,3.58 1.63,3.94 1.36,4.22 1.09,4.51 0.75,4.69 0.40,4.88 0.02,4.94 -0.36,5.01 -0.74,4.94 -1.13,4.88 -1.48,4.70 -1.82,4.52 -2.09,4.23 -2.36,3.95 -2.53,3.60 -2.69,3.24 -2.74,2.85 -2.78,2.46 -2.78,2.46 -2.78,2.46 -2.54,0.92 -2.29,-0.61 -2.18,-0.87 -2.08,-1.14 -1.91,-1.37 -1.74,-1.60 -1.53,-1.79 -1.31,-1.98 -1.05,-2.10 -0.80,-2.23 -0.52,-2.30 -0.24,-2.36 0.04,-2.35 0.33,-2.35 0.60,-2.27 0.88,-2.20 1.13,-2.06 1.38,-1.92 1.59,-1.73 1.80,-1.54 1.96,-1.30 2.12,-1.06 2.22,-0.79 2.31,-0.52 2.34,-0.23 2.37,0.04 2.33,0.32 2.29,0.61 2.29,0.61 L 2.29,0.61 Z"></path></g><g transform="translate(96.10554766167161 31.602470487118353) rotate(0 3.5185185185184764 8.395061728395092)" stroke="none"><path fill="#1e1e1e" d="M -2.30,0.62 Q -2.30,0.62 -2.45,0.21 -2.60,-0.20 -2.69,-1.29 -2.79,-2.37 -2.87,-2.92 -2.96,-3.47 -2.98,-3.81 -3.01,-4.15 -2.95,-4.49 -2.89,-4.83 -2.76,-5.14 -2.62,-5.46 -2.41,-5.73 -2.21,-6.01 -1.94,-6.22 -1.67,-6.44 -1.36,-6.58 -1.05,-6.73 -0.71,-6.80 -0.38,-6.86 -0.03,-6.85 0.30,-6.83 0.63,-6.73 0.96,-6.64 1.26,-6.46 1.55,-6.29 1.80,-6.05 2.04,-5.81 2.23,-5.52 2.41,-5.23 2.52,-4.90 2.62,-4.58 3.00,-3.40 3.37,-2.22 3.83,-1.02 4.28,0.17 4.66,1.39 5.03,2.60 5.22,3.68 5.42,4.75 6.10,5.99 6.77,7.23 7.14,8.26 7.51,9.29 7.75,10.62 7.99,11.95 8.33,13.06 8.67,14.16 9.07,15.25 9.48,16.33 10.21,17.90 10.94,19.47 11.07,20.07 11.20,20.67 11.13,21.28 11.06,21.89 10.80,22.45 10.54,23.00 10.11,23.45 9.69,23.89 9.14,24.18 8.60,24.46 7.99,24.56 7.39,24.66 6.78,24.56 6.17,24.45 5.63,24.16 5.09,23.87 4.67,23.42 4.25,22.98 3.99,22.42 3.74,21.86 3.67,21.25 3.61,20.64 3.75,20.04 3.88,19.44 4.20,18.91 4.52,18.39 4.99,17.99 5.46,17.60 6.03,17.37 6.60,17.15 7.22,17.12 7.83,17.09 8.42,17.25 9.01,17.42 9.52,17.77 10.03,18.11 10.40,18.60 10.77,19.10 10.96,19.68 11.15,20.26 11.15,20.88 11.15,21.49 10.95,22.07 10.75,22.65 10.38,23.14 10.00,23.63 9.49,23.97 8.98,24.31 8.39,24.47 7.80,24.64 7.18,24.60 6.57,24.56 6.00,24.33 5.43,24.10 4.96,23.70 4.50,23.30 4.18,22.78 3.87,22.25 3.87,22.25 3.87,22.25 3.40,21.13 2.93,20.01 2.56,18.54 2.18,17.08 1.66,15.79 1.14,14.51 1.03,13.04 0.91,11.58 0.39,10.44 -0.11,9.31 -0.62,8.32 -1.12,7.33 -0.92,6.02 -0.72,4.70 -1.22,3.19 -1.71,1.68 -1.84,0.46 -1.96,-0.76 -2.46,-2.11 -2.96,-3.47 -2.98,-3.81 -3.01,-4.15 -2.95,-4.49 -2.89,-4.83 -2.76,-5.14 -2.62,-5.46 -2.41,-5.73 -2.21,-6.01 -1.94,-6.22 -1.67,-6.44 -1.36,-6.58 -1.05,-6.73 -0.71,-6.80 -0.38,-6.86 -0.03,-6.85 0.30,-6.83 0.63,-6.73 0.96,-6.64 1.25,-6.46 1.55,-6.29 1.80,-6.05 2.04,-5.81 2.23,-5.52 2.41,-5.23 2.52,-4.90 2.62,-4.58 2.64,-4.13 2.66,-3.68 2.42,-2.52 2.17,-1.35 2.24,-0.99 2.30,-0.62 2.34,-0.34 2.38,-0.05 2.35,0.22 2.32,0.51 2.23,0.78 2.13,1.05 1.98,1.29 1.82,1.53 1.61,1.73 1.40,1.92 1.15,2.06 0.90,2.20 0.62,2.28 0.34,2.36 0.05,2.36 -0.22,2.37 -0.51,2.31 -0.79,2.25 -1.04,2.12 -1.30,1.99 -1.52,1.81 -1.74,1.62 -1.91,1.39 -2.08,1.16 -2.19,0.89 -2.30,0.62 -2.30,0.62 L -2.30,0.62 Z"></path></g><g transform="translate(86.59937482216537 62.960495178476435) rotate(0 -1.4197530864196324 0.3703703703703809)" stroke="none"><path fill="#1e1e1e" d="M 0.39,2.36 Q 0.39,2.36 -0.09,1.97 -0.58,1.58 -0.77,1.92 -0.96,2.25 -1.25,2.51 -1.55,2.77 -1.90,2.92 -2.26,3.08 -2.65,3.11 -3.04,3.14 -3.42,3.04 -3.80,2.95 -4.12,2.73 -4.45,2.52 -4.69,2.22 -4.94,1.91 -5.07,1.55 -5.20,1.18 -5.21,0.79 -5.22,0.40 -5.10,0.03 -4.99,-0.33 -4.76,-0.65 -4.53,-0.97 -4.21,-1.19 -3.90,-1.42 -3.52,-1.53 -3.15,-1.64 -2.76,-1.63 -2.37,-1.62 -2.00,-1.48 -1.64,-1.35 -1.34,-1.10 -1.03,-0.86 -0.83,-0.53 -0.62,-0.20 -0.52,0.17 -0.43,0.55 -0.47,0.94 -0.50,1.33 -0.65,1.69 -0.81,2.04 -1.07,2.33 -1.33,2.62 -1.67,2.81 -2.01,3.00 -2.40,3.07 -2.78,3.14 -3.17,3.09 -3.55,3.04 -3.90,2.86 -4.25,2.69 -4.52,2.41 -4.80,2.13 -4.97,1.78 -5.14,1.43 -5.19,1.05 -5.24,0.66 -5.17,0.28 -5.09,-0.10 -5.09,-0.10 -5.09,-0.10 -2.74,-1.23 -0.39,-2.36 -0.10,-2.37 0.18,-2.38 0.46,-2.33 0.74,-2.27 1.01,-2.15 1.27,-2.02 1.49,-1.84 1.71,-1.66 1.89,-1.43 2.06,-1.20 2.18,-0.94 2.29,-0.67 2.34,-0.39 2.39,-0.10 2.36,0.18 2.34,0.46 2.25,0.74 2.16,1.01 2.01,1.26 1.86,1.50 1.65,1.70 1.44,1.90 1.19,2.05 0.94,2.19 0.67,2.27 0.39,2.36 0.39,2.36 L 0.39,2.36 Z"></path></g><g transform="translate(93.512955069079 19.997532215513388) rotate(0 -0.12345679012332766 -0.37037037037032405)" stroke="none"><path fill="#1e1e1e" d="M -2.38,0.19 Q -2.38,0.19 -2.46,-0.22 -2.54,-0.64 -2.95,-1.67 -3.36,-2.71 -3.62,-3.83 -3.89,-4.95 -3.85,-5.31 -3.81,-5.66 -3.68,-5.99 -3.56,-6.33 -3.36,-6.62 -3.16,-6.92 -2.89,-7.16 -2.63,-7.40 -2.31,-7.57 -2.00,-7.73 -1.65,-7.82 -1.31,-7.91 -0.95,-7.91 -0.60,-7.91 -0.25,-7.83 0.09,-7.75 0.41,-7.59 0.72,-7.42 0.99,-7.19 1.26,-6.95 1.47,-6.66 1.67,-6.37 1.80,-6.04 1.93,-5.70 1.97,-5.35 2.02,-5.00 2.07,-3.84 2.12,-2.68 2.19,-1.59 2.26,-0.50 2.61,0.69 2.96,1.89 3.31,2.31 3.66,2.73 3.85,3.24 4.05,3.75 4.07,4.30 4.10,4.85 3.94,5.37 3.79,5.90 3.48,6.35 3.17,6.80 2.73,7.12 2.29,7.45 1.76,7.62 1.24,7.79 0.70,7.78 0.15,7.77 -0.36,7.59 -0.88,7.41 -1.31,7.07 -1.74,6.74 -2.04,6.28 -2.34,5.82 -2.48,5.29 -2.62,4.76 -2.59,4.22 -2.55,3.67 -2.34,3.16 -2.13,2.66 -1.77,2.25 -1.41,1.83 -0.94,1.56 -0.47,1.28 0.06,1.17 0.59,1.06 1.14,1.12 1.68,1.19 2.18,1.42 2.67,1.66 3.06,2.04 3.46,2.42 3.71,2.91 3.96,3.40 4.04,3.94 4.12,4.48 4.03,5.02 3.93,5.56 3.67,6.04 3.41,6.52 3.00,6.89 2.60,7.27 2.10,7.49 1.60,7.71 1.06,7.77 0.51,7.82 -0.01,7.69 -0.55,7.57 -1.01,7.28 -1.48,6.99 -1.48,6.99 -1.48,6.99 -2.59,4.68 -3.69,2.36 -3.96,0.93 -4.23,-0.50 -4.16,-1.59 -4.09,-2.68 -3.99,-3.82 -3.89,-4.95 -3.85,-5.31 -3.81,-5.66 -3.68,-5.99 -3.56,-6.33 -3.36,-6.62 -3.16,-6.92 -2.89,-7.16 -2.63,-7.40 -2.32,-7.56 -2.00,-7.73 -1.65,-7.82 -1.31,-7.91 -0.95,-7.91 -0.60,-7.91 -0.25,-7.83 0.09,-7.75 0.41,-7.59 0.72,-7.42 0.99,-7.19 1.26,-6.95 1.47,-6.66 1.67,-6.37 1.80,-6.04 1.93,-5.70 1.97,-5.35 2.02,-5.00 1.83,-4.21 1.65,-3.42 2.02,-2.24 2.40,-1.05 2.39,-0.62 2.38,-0.19 2.37,0.08 2.36,0.37 2.28,0.65 2.20,0.93 2.06,1.18 1.91,1.43 1.71,1.64 1.51,1.85 1.27,2.00 1.03,2.16 0.75,2.25 0.48,2.34 0.19,2.36 -0.09,2.39 -0.37,2.34 -0.66,2.30 -0.92,2.18 -1.19,2.07 -1.42,1.90 -1.65,1.73 -1.83,1.50 -2.02,1.28 -2.14,1.02 -2.26,0.76 -2.32,0.48 -2.38,0.19 -2.38,0.19 L -2.38,0.19 Z"></path></g><g transform="translate(14.130239019696546 62.590124808106) rotate(0 -0.8024691358025393 0.5555555555555998)" stroke="none"><path fill="#1e1e1e" d="M 1.25,2.01 Q 1.25,2.01 0.57,2.61 -0.10,3.20 -0.43,3.40 -0.77,3.59 -1.14,3.66 -1.52,3.74 -1.91,3.69 -2.29,3.64 -2.63,3.47 -2.98,3.30 -3.26,3.03 -3.53,2.75 -3.70,2.41 -3.88,2.06 -3.93,1.68 -3.98,1.30 -3.91,0.92 -3.84,0.54 -3.65,0.21 -3.47,-0.12 -3.18,-0.38 -2.89,-0.64 -2.54,-0.79 -2.19,-0.95 -1.80,-0.98 -1.42,-1.01 -1.04,-0.92 -0.67,-0.83 -0.34,-0.63 -0.02,-0.42 0.22,-0.12 0.46,0.17 0.59,0.53 0.73,0.89 0.74,1.28 0.75,1.66 0.64,2.03 0.53,2.40 0.31,2.72 0.08,3.03 -0.22,3.26 -0.53,3.48 -0.90,3.60 -1.27,3.71 -1.65,3.71 -2.04,3.70 -2.40,3.57 -2.76,3.43 -3.07,3.19 -3.37,2.95 -3.58,2.63 -3.79,2.31 -3.88,1.93 -3.98,1.56 -3.95,1.17 -3.92,0.79 -3.77,0.43 -3.62,0.08 -3.36,-0.20 -3.10,-0.49 -3.10,-0.49 -3.10,-0.49 -2.18,-1.25 -1.25,-2.01 -0.99,-2.13 -0.73,-2.25 -0.45,-2.31 -0.17,-2.36 0.10,-2.35 0.39,-2.34 0.66,-2.26 0.94,-2.17 1.18,-2.03 1.43,-1.89 1.64,-1.69 1.84,-1.49 1.99,-1.24 2.15,-1.00 2.23,-0.73 2.32,-0.46 2.35,-0.17 2.37,0.10 2.32,0.39 2.27,0.67 2.16,0.93 2.04,1.19 1.87,1.42 1.70,1.65 1.48,1.83 1.25,2.01 1.25,2.01 L 1.25,2.01 Z"></path></g></svg>