<?xml version="1.0" standalone="no"?>
<!DOCTYPE svg PUBLIC "-//W3C//DTD SVG 1.1//EN" "http://www.w3.org/Graphics/SVG/1.1/DTD/svg11.dtd">
<svg version="1.1" xmlns="http://www.w3.org/2000/svg" viewBox="0 0 946.7238440354065 51.838900205972095" width="946.7238440354065" height="51.838900205972095"><!-- svg-source:excalidraw --><metadata></metadata><defs><style class="style-fonts">
      </style></defs><g stroke-linecap="round"><g transform="translate(11.542264943457894 12.288399966526754) rotate(0 462 4)"><path d="M-0.27 0.12 C153.99 1.74, 770.91 7.69, 924.8 9.18 M1.8 -0.86 C156.03 0.51, 770.33 6.32, 924.27 7.67" stroke="#1e1e1e" stroke-width="2" fill="none"></path></g></g><mask></mask><g stroke-linecap="round"><g transform="translate(10.320042721235723 10.288399966526754) rotate(0 0 11.5)"><path d="M0.23 -0.29 C0.35 3.56, 0.31 18.81, 0.25 22.71 M-0.32 0.75 C-0.2 4.7, -0.02 19.43, -0.06 23.26" stroke="#1e1e1e" stroke-width="2" fill="none"></path></g></g><mask></mask><g stroke-linecap="round"><g transform="translate(12.320042721235723 33.288399966526754) rotate(0 460.7777777777778 4.2222222222222285)"><path d="M0.97 1.18 C154.48 2.6, 768.27 6.11, 921.68 7.51 M0.02 0.75 C153.34 2.38, 767.37 7.38, 920.8 8.55" stroke="#1e1e1e" stroke-width="2" fill="none"></path></g></g><mask></mask><g stroke-linecap="round"><g transform="translate(936.431153832347 21.288399966526754) rotate(0 -1.0555555555556566 10.222222222222229)"><path d="M0.29 0.05 C0.03 3.45, -1.6 16.69, -1.98 20.01 M-0.22 -0.4 C-0.51 3.09, -2.01 17.03, -2.34 20.48" stroke="#1e1e1e" stroke-width="2" fill="none"></path></g></g><mask></mask></svg>