<?xml version="1.0" standalone="no"?>
<!DOCTYPE svg PUBLIC "-//W3C//DTD SVG 1.1//EN" "http://www.w3.org/Graphics/SVG/1.1/DTD/svg11.dtd">
<svg version="1.1" xmlns="http://www.w3.org/2000/svg" viewBox="0 0 292.8284762003841 40.91251465982259" width="292.8284762003841" height="40.91251465982259"><!-- svg-source:excalidraw --><metadata></metadata><defs><style class="style-fonts">
      </style></defs><g stroke-linecap="round"><g transform="translate(11.034093322604804 12.026459653807024) rotate(0 0.2941176470587834 7.352941176470608)"><path d="M-0.26 -0.35 C-0.11 2.18, 0.27 12.53, 0.49 15.07 M0.61 0.66 C0.72 3.05, -0.05 12.08, 0.01 14.29" stroke="#1e1e1e" stroke-width="2" fill="none"></path></g></g><mask></mask><g stroke-linecap="round"><g transform="translate(10.445858028486782 11.438224359689457) rotate(0 136.17647058823536 -0.5882352941176805)"><path d="M1.09 0.96 C46.55 0.72, 227.02 -0.98, 272.38 -1.44 M0.2 0.41 C45.54 0.36, 225.99 0.16, 271.45 -0.04" stroke="#1e1e1e" stroke-width="2" fill="none"></path></g></g><mask></mask><g stroke-linecap="round"><g transform="translate(11.034093322604804 27.320577300865807) rotate(0 135.88235294117635 1.1764705882352473)"><path d="M-1.03 0.88 C44.16 1.36, 226.37 2.96, 271.75 3.33 M0.62 0.3 C45.61 0.41, 225.86 1.57, 270.8 1.72" stroke="#1e1e1e" stroke-width="2" fill="none"></path></g></g><mask></mask><g stroke-linecap="round"><g transform="translate(282.21056391083994 11.438224359689457) rotate(0 -0.2941176470587834 9.70588235294116)"><path d="M0.13 0.14 C0.11 3.22, 0.01 15.7, -0.12 18.99 M-0.46 -0.27 C-0.51 3.1, -0.22 16.25, -0.31 19.47" stroke="#1e1e1e" stroke-width="2" fill="none"></path></g></g><mask></mask></svg>